if (_typeface_js && _typeface_js.loadFace) _typeface_js.loadFace({"glyphs":{"0":{"ha":858,"x_min":0,"x_max":0,"o":"m 428 -12 b 793 488 644 -12 793 149 b 428 1000 793 839 638 1000 b 65 486 221 1000 65 843 b 428 -12 65 149 213 -12 z m 429 90 b 171 486 271 90 171 206 b 429 896 171 781 275 896 b 685 486 582 896 685 778 b 429 90 685 210 586 90 z "},"1":{"ha":488,"x_min":0,"x_max":0,"o":"m 249 0 l 356 0 l 356 986 l 267 986 l 40 897 l 53 811 l 249 863 z "},"2":{"ha":781,"x_min":0,"x_max":0,"o":"m 79 0 l 706 0 l 706 103 l 229 103 l 443 340 b 681 731 557 467 682 575 b 379 1001 679 883 567 1001 b 78 746 215 1001 106 883 l 182 726 b 381 899 199 819 274 897 b 572 726 500 900 572 822 b 344 393 572 613 444 506 l 79 97 z "},"3":{"ha":786,"x_min":0,"x_max":0,"o":"m 375 -7 b 714 285 574 -10 714 104 b 525 521 714 442 594 503 b 685 750 590 539 692 604 b 382 1000 678 907 532 1000 b 75 753 243 1000 99 910 l 175 753 b 381 900 203 846 274 900 b 579 733 503 900 579 835 b 303 556 579 618 464 557 l 303 467 b 601 286 492 463 601 411 b 376 96 601 168 508 96 b 168 250 282 96 190 161 l 58 250 b 375 -7 92 69 254 -6 z "},"4":{"ha":797,"x_min":0,"x_max":0,"o":"m 499 0 l 608 0 l 608 222 l 721 222 l 721 325 l 608 325 l 608 985 l 471 985 l 51 328 l 51 225 l 499 225 z m 164 328 l 500 853 l 500 328 z "},"5":{"ha":789,"x_min":0,"x_max":0,"o":"m 375 -15 b 706 313 567 -15 706 115 b 390 636 706 519 565 636 b 190 571 256 636 200 578 l 201 886 l 650 886 l 650 986 l 108 986 l 88 447 l 193 432 b 385 536 214 485 278 536 b 600 313 515 536 600 454 b 369 88 600 175 514 88 b 168 250 274 88 190 142 l 54 250 b 375 -15 79 75 233 -15 z "},"6":{"ha":821,"x_min":0,"x_max":0,"o":"m 406 -4 b 756 325 610 -4 756 144 b 431 647 756 525 599 647 b 279 596 340 647 292 613 l 549 999 l 422 999 l 203 668 b 65 322 139 571 65 444 b 406 -4 65 132 231 -4 z m 407 100 b 174 322 281 99 174 185 b 411 549 174 456 272 549 b 646 324 542 549 646 461 b 407 100 646 190 543 100 z "},"7":{"ha":732,"x_min":0,"x_max":0,"o":"m 136 0 l 256 0 l 665 896 l 665 985 l 46 985 l 46 883 l 546 883 z "},"8":{"ha":778,"x_min":0,"x_max":0,"o":"m 390 -11 b 713 268 592 -11 711 107 b 513 517 713 442 586 497 b 672 746 589 533 672 621 b 386 999 672 882 557 999 b 101 744 214 999 101 889 b 239 517 100 617 179 546 b 65 264 169 492 65 426 b 390 -11 67 101 192 -11 z m 383 560 b 208 746 264 581 208 660 b 386 900 208 835 275 900 b 564 744 492 900 564 832 b 383 560 564 663 511 578 z m 390 89 b 176 267 251 89 178 165 b 360 471 175 344 214 429 b 603 272 475 444 601 408 b 390 89 603 163 524 89 z "},"9":{"ha":813,"x_min":0,"x_max":0,"o":"m 378 0 l 593 306 b 747 669 663 404 747 547 b 414 1001 747 864 590 1001 b 65 667 211 1001 65 851 b 403 333 65 471 231 333 b 515 367 461 333 500 353 l 251 0 z m 408 433 b 174 668 278 433 174 529 b 410 900 174 806 274 900 b 638 669 536 900 638 803 b 408 433 638 521 538 433 z "}," ":{"ha":231,"x_min":0,"x_max":0,"o":""},"A":{"ha":917,"x_min":0,"x_max":0,"o":"m 278 335 l 458 831 l 639 335 z m 44 0 l 158 0 l 244 235 l 674 235 l 761 0 l 872 0 l 514 986 l 403 986 z "},"Á":{"ha":917,"x_min":0,"x_max":0,"o":"m 410 1057 l 508 1057 l 661 1215 l 554 1300 z m 278 335 l 458 831 l 639 335 z m 44 0 l 158 0 l 244 235 l 674 235 l 761 0 l 872 0 l 514 986 l 403 986 z "},"Ă":{"ha":924,"x_min":0,"x_max":0,"o":"m 463 1060 b 697 1186 551 1060 644 1103 l 633 1246 b 463 1156 585 1186 522 1156 b 289 1246 403 1156 335 1192 l 226 1186 b 463 1060 279 1113 375 1060 z m 285 335 l 465 831 l 646 335 z m 51 0 l 165 0 l 251 235 l 681 235 l 768 0 l 879 0 l 521 986 l 410 986 z "},"Â":{"ha":917,"x_min":0,"x_max":0,"o":"m 308 1028 l 458 1132 l 604 1029 l 660 1081 l 511 1231 l 404 1231 l 254 1078 z m 278 335 l 458 831 l 639 335 z m 44 0 l 158 0 l 244 235 l 674 235 l 761 0 l 872 0 l 514 986 l 403 986 z "},"Ä":{"ha":917,"x_min":0,"x_max":0,"o":"m 603 1065 b 674 1136 639 1065 674 1097 b 603 1207 674 1175 639 1207 b 533 1136 567 1207 533 1175 b 603 1065 533 1097 567 1065 z m 314 1065 b 385 1136 351 1065 385 1097 b 314 1207 385 1175 351 1207 b 244 1136 279 1207 244 1175 b 314 1065 244 1097 279 1065 z m 278 335 l 458 831 l 639 335 z m 44 0 l 158 0 l 244 235 l 674 235 l 761 0 l 872 0 l 514 986 l 403 986 z "},"À":{"ha":917,"x_min":0,"x_max":0,"o":"m 369 1308 l 263 1224 l 415 1065 l 514 1065 z m 278 335 l 458 831 l 639 335 z m 44 0 l 158 0 l 244 235 l 674 235 l 761 0 l 872 0 l 514 986 l 403 986 z "},"Ā":{"ha":917,"x_min":0,"x_max":0,"o":"m 207 1074 l 711 1074 l 711 1167 l 207 1167 z m 278 335 l 458 831 l 639 335 z m 44 0 l 158 0 l 244 235 l 674 235 l 761 0 l 872 0 l 514 986 l 403 986 z "},"Ą":{"ha":917,"x_min":0,"x_max":0,"o":"m 278 335 l 458 831 l 639 335 z m 861 -201 l 778 -201 b 738 -143 714 -201 713 -171 l 867 0 l 872 0 l 514 986 l 403 986 l 44 0 l 158 0 l 244 235 l 674 235 l 754 21 b 647 -101 725 -12 669 -72 b 757 -299 571 -192 631 -299 l 861 -299 z "},"Å":{"ha":917,"x_min":0,"x_max":0,"o":"m 460 992 b 379 1071 413 992 379 1025 b 460 1153 379 1114 414 1153 b 539 1071 506 1153 539 1114 b 460 992 539 1025 507 992 z m 278 335 l 458 831 l 639 335 z m 244 235 l 674 235 l 761 0 l 872 0 l 532 936 b 615 1072 581 961 615 1013 b 460 1229 615 1156 539 1229 b 303 1072 379 1229 303 1156 b 385 936 303 1013 338 963 l 44 0 l 158 0 z "},"Ǻ":{"ha":917,"x_min":0,"x_max":0,"o":"m 408 1264 l 507 1264 l 660 1422 l 553 1507 z m 460 992 b 379 1071 413 992 379 1025 b 460 1153 379 1114 414 1153 b 539 1071 506 1153 539 1114 b 460 992 539 1025 507 992 z m 278 335 l 458 831 l 639 335 z m 244 235 l 674 235 l 761 0 l 872 0 l 532 936 b 615 1072 581 961 615 1013 b 460 1229 615 1156 539 1229 b 303 1072 379 1229 303 1156 b 385 936 303 1013 338 963 l 44 0 l 158 0 z "},"Ã":{"ha":917,"x_min":0,"x_max":0,"o":"m 210 1083 l 274 1063 b 374 1128 288 1104 326 1125 b 576 1072 449 1131 488 1067 b 711 1201 668 1079 710 1160 l 643 1225 b 564 1168 636 1199 610 1171 b 363 1224 510 1165 474 1231 b 210 1083 274 1217 217 1149 z m 278 335 l 458 831 l 639 335 z m 44 0 l 158 0 l 244 235 l 674 235 l 761 0 l 872 0 l 514 986 l 403 986 z "},"Æ":{"ha":1314,"x_min":0,"x_max":0,"o":"m 319 343 l 640 868 l 640 343 z m -12 0 l 110 0 l 260 243 l 640 243 l 640 0 l 1247 0 l 1247 101 l 747 101 l 747 449 l 1147 449 l 1147 550 l 747 550 l 747 885 l 1244 885 l 1244 986 l 586 986 z "},"Ǽ":{"ha":1336,"x_min":0,"x_max":0,"o":"m 679 1083 l 778 1083 l 931 1242 l 824 1326 z m 322 343 l 643 868 l 643 343 z m -10 0 l 113 0 l 263 243 l 643 243 l 643 0 l 1250 0 l 1250 101 l 750 101 l 750 449 l 1150 449 l 1150 550 l 750 550 l 750 885 l 1247 885 l 1247 986 l 589 986 z "},"B":{"ha":851,"x_min":0,"x_max":0,"o":"m 104 0 l 458 0 b 786 276 683 0 786 132 b 603 514 786 424 679 500 b 739 724 661 532 739 599 b 444 986 739 879 617 986 l 104 986 z m 215 557 l 215 886 l 440 886 b 631 722 572 886 631 803 b 450 557 631 628 564 557 z m 215 100 l 215 460 l 453 460 b 676 283 582 460 676 397 b 454 100 676 167 604 100 z "},"C":{"ha":919,"x_min":0,"x_max":0,"o":"m 481 -14 b 850 319 675 -14 819 115 l 742 319 b 481 89 718 188 621 89 b 178 486 331 89 178 196 b 481 896 178 801 329 896 b 739 676 617 896 714 813 l 847 676 b 481 1000 817 876 675 1000 b 69 486 275 1000 69 865 b 481 -14 69 128 285 -14 z "},"Ć":{"ha":919,"x_min":0,"x_max":0,"o":"m 400 1065 l 499 1065 l 651 1224 l 544 1308 z m 481 -14 b 850 319 675 -14 819 115 l 742 319 b 481 89 718 188 621 89 b 178 486 331 89 178 196 b 481 896 178 801 329 896 b 739 676 617 896 714 813 l 847 676 b 481 1000 817 876 675 1000 b 69 486 275 1000 69 865 b 481 -14 69 128 285 -14 z "},"Č":{"ha":919,"x_min":0,"x_max":0,"o":"m 424 1079 l 531 1079 l 678 1231 l 625 1282 l 476 1178 l 326 1282 l 272 1229 z m 481 -14 b 850 319 675 -14 819 115 l 742 319 b 481 89 718 188 621 89 b 178 486 331 89 178 196 b 481 896 178 801 329 896 b 739 676 617 896 714 813 l 847 676 b 481 1000 817 876 675 1000 b 69 486 275 1000 69 865 b 481 -14 69 128 285 -14 z "},"Ç":{"ha":919,"x_min":0,"x_max":0,"o":"m 446 -329 b 607 -183 556 -329 607 -261 b 465 -36 607 -100 544 -46 l 469 -14 b 481 -14 472 -14 476 -14 b 850 319 675 -14 819 115 l 742 319 b 481 89 718 188 621 89 b 178 486 331 89 178 196 b 481 896 178 801 329 896 b 739 676 617 896 714 813 l 847 676 b 481 1000 817 876 675 1000 b 69 486 275 1000 69 865 b 397 -6 69 178 229 31 l 374 -117 l 428 -122 b 515 -183 481 -128 515 -146 b 447 -237 515 -219 482 -237 b 350 -212 407 -237 376 -224 l 318 -296 b 446 -329 347 -308 393 -329 z "},"Ċ":{"ha":919,"x_min":0,"x_max":0,"o":"m 475 1103 b 550 1178 513 1103 550 1135 b 475 1253 550 1218 513 1253 b 399 1178 438 1253 399 1218 b 475 1103 399 1135 438 1103 z m 481 -14 b 850 319 675 -14 819 115 l 742 319 b 481 89 718 188 621 89 b 178 486 331 89 178 196 b 481 896 178 801 329 896 b 739 676 617 896 714 813 l 847 676 b 481 1000 817 876 675 1000 b 69 486 275 1000 69 865 b 481 -14 69 128 285 -14 z "},"D":{"ha":892,"x_min":0,"x_max":0,"o":"m 106 0 l 404 0 b 818 494 624 0 818 146 b 404 986 818 828 619 986 l 106 986 z m 213 103 l 213 883 l 404 883 b 711 494 569 883 711 761 b 404 103 711 224 582 103 z "},"Ď":{"ha":894,"x_min":0,"x_max":0,"o":"m 371 1074 l 478 1074 l 625 1225 l 572 1276 l 424 1172 l 274 1276 l 219 1224 z m 108 0 l 407 0 b 821 494 626 0 821 146 b 407 986 821 828 622 986 l 108 986 z m 215 103 l 215 883 l 407 883 b 714 494 572 883 714 761 b 407 103 714 224 585 103 z "},"Đ":{"ha":950,"x_min":0,"x_max":0,"o":"m 463 0 b 876 494 682 0 876 146 b 463 986 876 828 678 986 l 164 986 l 164 543 l 22 543 l 22 442 l 164 442 l 164 0 z m 271 103 l 271 442 l 486 442 l 486 543 l 271 543 l 271 883 l 463 883 b 769 494 628 883 769 761 b 463 103 769 224 640 103 z "},"Ð":{"ha":953,"x_min":0,"x_max":0,"o":"m 465 0 b 879 494 685 0 879 146 b 465 986 879 828 681 986 l 167 986 l 167 543 l 25 543 l 25 442 l 167 442 l 167 0 z m 274 103 l 274 442 l 489 442 l 489 543 l 274 543 l 274 883 l 465 883 b 772 494 631 883 772 761 b 465 103 772 224 643 103 z "},"E":{"ha":817,"x_min":0,"x_max":0,"o":"m 110 0 l 738 0 l 738 101 l 217 101 l 217 449 l 621 449 l 621 551 l 217 551 l 217 885 l 725 885 l 725 986 l 110 986 z "},"É":{"ha":817,"x_min":0,"x_max":0,"o":"m 332 1075 l 431 1075 l 583 1233 l 476 1318 z m 110 0 l 738 0 l 738 101 l 217 101 l 217 449 l 621 449 l 621 551 l 217 551 l 217 885 l 725 885 l 725 986 l 110 986 z "},"Ĕ":{"ha":817,"x_min":0,"x_max":0,"o":"m 410 1074 b 644 1200 499 1074 592 1117 l 581 1260 b 410 1169 532 1200 469 1169 b 236 1260 350 1169 282 1206 l 174 1200 b 410 1074 226 1126 322 1074 z m 110 0 l 738 0 l 738 101 l 217 101 l 217 449 l 621 449 l 621 551 l 217 551 l 217 885 l 725 885 l 725 986 l 110 986 z "},"Ě":{"ha":817,"x_min":0,"x_max":0,"o":"m 364 1079 l 471 1079 l 618 1231 l 565 1282 l 417 1178 l 267 1282 l 213 1229 z m 110 0 l 738 0 l 738 101 l 217 101 l 217 449 l 621 449 l 621 551 l 217 551 l 217 885 l 725 885 l 725 986 l 110 986 z "},"Ê":{"ha":817,"x_min":0,"x_max":0,"o":"m 267 1078 l 417 1182 l 563 1079 l 618 1131 l 469 1281 l 363 1281 l 213 1128 z m 110 0 l 738 0 l 738 101 l 217 101 l 217 449 l 621 449 l 621 551 l 217 551 l 217 885 l 725 885 l 725 986 l 110 986 z "},"Ë":{"ha":817,"x_min":0,"x_max":0,"o":"m 563 1110 b 633 1181 599 1110 633 1142 b 563 1251 633 1219 599 1251 b 493 1181 526 1251 493 1219 b 563 1110 493 1142 526 1110 z m 274 1110 b 344 1181 311 1110 344 1142 b 274 1251 344 1219 311 1251 b 204 1181 239 1251 204 1219 b 274 1110 204 1142 239 1110 z m 110 0 l 738 0 l 738 101 l 217 101 l 217 449 l 621 449 l 621 551 l 217 551 l 217 885 l 725 885 l 725 986 l 110 986 z "},"Ė":{"ha":817,"x_min":0,"x_max":0,"o":"m 415 1094 b 490 1169 453 1094 490 1126 b 415 1244 490 1210 453 1244 b 339 1169 378 1244 339 1210 b 415 1094 339 1126 378 1094 z m 110 0 l 738 0 l 738 101 l 217 101 l 217 449 l 621 449 l 621 551 l 217 551 l 217 885 l 725 885 l 725 986 l 110 986 z "},"È":{"ha":817,"x_min":0,"x_max":0,"o":"m 367 1322 l 260 1238 l 413 1079 l 511 1079 z m 110 0 l 738 0 l 738 101 l 217 101 l 217 449 l 621 449 l 621 551 l 217 551 l 217 885 l 725 885 l 725 986 l 110 986 z "},"Ē":{"ha":817,"x_min":0,"x_max":0,"o":"m 157 1122 l 661 1122 l 661 1215 l 157 1215 z m 110 0 l 738 0 l 738 101 l 217 101 l 217 449 l 621 449 l 621 551 l 217 551 l 217 885 l 725 885 l 725 986 l 110 986 z "},"Ę":{"ha":817,"x_min":0,"x_max":0,"o":"m 732 -201 l 649 -201 b 608 -143 585 -201 583 -171 l 738 0 l 738 101 l 217 101 l 217 449 l 621 449 l 621 551 l 217 551 l 217 885 l 725 885 l 725 986 l 110 986 l 110 0 l 606 0 b 518 -101 576 -33 536 -78 b 628 -299 442 -192 501 -299 l 732 -299 z "},"F":{"ha":790,"x_min":0,"x_max":0,"o":"m 110 0 l 217 0 l 217 447 l 625 447 l 625 549 l 217 549 l 217 883 l 719 883 l 719 986 l 110 986 z "},"G":{"ha":919,"x_min":0,"x_max":0,"o":"m 465 -15 b 849 424 668 -15 849 99 l 849 515 l 485 515 l 485 415 l 743 415 b 465 88 743 175 622 88 b 179 497 318 88 179 182 b 465 897 179 790 319 897 b 729 694 619 897 714 796 l 836 694 b 465 1000 811 878 661 1000 b 71 499 265 1000 71 854 b 465 -15 71 106 272 -15 z "},"Ğ":{"ha":919,"x_min":0,"x_max":0,"o":"m 460 1085 b 694 1211 549 1085 642 1128 l 631 1271 b 460 1181 582 1211 519 1181 b 286 1271 400 1181 332 1217 l 224 1211 b 460 1085 276 1138 372 1085 z m 465 -15 b 849 424 668 -15 849 99 l 849 515 l 485 515 l 485 415 l 743 415 b 465 88 743 175 622 88 b 179 497 318 88 179 182 b 465 897 179 790 319 897 b 729 694 619 897 714 796 l 836 694 b 465 1000 811 878 661 1000 b 71 499 265 1000 71 854 b 465 -15 71 106 272 -15 z "},"Ģ":{"ha":919,"x_min":0,"x_max":0,"o":"m 465 -15 b 849 424 668 -15 849 99 l 849 515 l 485 515 l 485 415 l 743 415 b 465 88 743 175 622 88 b 179 497 318 88 179 182 b 465 897 179 790 319 897 b 729 694 619 897 714 796 l 836 694 b 465 1000 811 878 661 1000 b 71 499 265 1000 71 854 b 465 -15 71 106 272 -15 z m 408 -65 l 378 -275 l 478 -275 l 533 -65 z "},"Ġ":{"ha":919,"x_min":0,"x_max":0,"o":"m 461 1124 b 536 1199 499 1124 536 1156 b 461 1274 536 1239 499 1274 b 385 1199 424 1274 385 1239 b 461 1124 385 1156 424 1124 z m 465 -15 b 849 424 668 -15 849 99 l 849 515 l 485 515 l 485 415 l 743 415 b 465 88 743 175 622 88 b 179 497 318 88 179 182 b 465 897 179 790 319 897 b 729 694 619 897 714 796 l 836 694 b 465 1000 811 878 661 1000 b 71 499 265 1000 71 854 b 465 -15 71 106 272 -15 z "},"H":{"ha":910,"x_min":0,"x_max":0,"o":"m 114 0 l 221 0 l 221 442 l 689 442 l 689 0 l 796 0 l 796 986 l 689 986 l 689 544 l 221 544 l 221 986 l 114 986 z "},"Ħ":{"ha":913,"x_min":0,"x_max":0,"o":"m 224 544 l 224 738 l 692 738 l 692 544 z m 224 442 l 692 442 l 692 0 l 799 0 l 799 738 l 906 738 l 906 831 l 799 831 l 799 986 l 692 986 l 692 831 l 224 831 l 224 986 l 117 986 l 117 831 l 3 831 l 3 738 l 117 738 l 117 0 l 224 0 z "},"I":{"ha":325,"x_min":0,"x_max":0,"o":"m 110 0 l 217 0 l 217 986 l 110 986 z "},"Í":{"ha":324,"x_min":0,"x_max":0,"o":"m 96 1072 l 204 1072 l 318 1188 l 204 1267 z m 108 0 l 215 0 l 215 986 l 108 986 z "},"Î":{"ha":324,"x_min":0,"x_max":0,"o":"m 83 1064 l 161 1140 l 238 1064 l 310 1113 l 215 1244 l 107 1244 l 13 1113 z m 108 0 l 215 0 l 215 986 l 108 986 z "},"Ì":{"ha":324,"x_min":0,"x_max":0,"o":"m 136 1076 l 243 1076 l 133 1268 l 22 1190 z m 108 0 l 215 0 l 215 986 l 108 986 z "},"Ï":{"ha":324,"x_min":0,"x_max":0,"o":"m 269 1100 b 338 1171 307 1100 338 1129 b 269 1242 338 1214 307 1242 b 201 1171 232 1242 201 1214 b 269 1100 201 1129 232 1100 z m 65 1100 b 132 1172 101 1100 132 1131 b 65 1242 132 1214 101 1242 b -3 1172 26 1242 -3 1214 b 65 1100 -3 1131 26 1100 z m 108 0 l 215 0 l 215 986 l 108 986 z "},"İ":{"ha":324,"x_min":0,"x_max":0,"o":"m 189 1092 b 264 1167 226 1092 264 1124 b 189 1242 264 1207 226 1242 b 113 1167 151 1242 113 1207 b 189 1092 113 1124 151 1092 z m 108 0 l 215 0 l 215 986 l 108 986 z "},"Ĭ":{"ha":324,"x_min":0,"x_max":0,"o":"m 161 1064 b 346 1211 242 1064 322 1121 l 275 1240 b 161 1158 256 1192 213 1158 b 46 1240 113 1158 71 1190 l -21 1204 b 161 1064 7 1124 82 1064 z m 108 0 l 215 0 l 215 986 l 108 986 z "},"Ī":{"ha":324,"x_min":0,"x_max":0,"o":"m 15 1110 l 310 1110 l 310 1203 l 15 1203 z m 108 0 l 215 0 l 215 986 l 108 986 z "},"Į":{"ha":324,"x_min":0,"x_max":0,"o":"m 210 -201 l 126 -201 b 86 -143 63 -201 61 -171 l 215 0 l 215 986 l 108 986 l 108 28 b -4 -101 82 -3 21 -71 b 106 -299 -81 -192 -21 -299 l 210 -299 z "},"J":{"ha":657,"x_min":0,"x_max":0,"o":"m 244 -14 b 542 363 424 -14 542 93 l 542 986 l 435 986 l 435 361 b 246 92 435 157 356 92 b 79 161 183 92 129 114 l 4 90 b 244 -14 54 36 142 -14 z "},"K":{"ha":878,"x_min":0,"x_max":0,"o":"m 110 0 l 217 0 l 217 306 l 367 472 l 715 0 l 847 0 l 439 551 l 832 986 l 689 986 l 217 463 l 217 986 l 110 986 z "},"Ķ":{"ha":878,"x_min":0,"x_max":0,"o":"m 110 0 l 217 0 l 217 306 l 367 472 l 715 0 l 847 0 l 439 551 l 832 986 l 689 986 l 217 463 l 217 986 l 110 986 z m 379 -25 l 349 -235 l 449 -235 l 504 -25 z "},"L":{"ha":758,"x_min":0,"x_max":0,"o":"m 110 0 l 706 0 l 706 103 l 217 103 l 217 986 l 110 986 z "},"Ł":{"ha":792,"x_min":0,"x_max":0,"o":"m 739 0 l 739 103 l 250 103 l 250 440 l 536 588 l 493 676 l 250 551 l 250 986 l 143 986 l 143 496 l -1 422 l 42 332 l 143 385 l 143 0 z "},"Ĺ":{"ha":758,"x_min":0,"x_max":0,"o":"m 138 1094 l 236 1094 l 389 1253 l 282 1338 z m 110 0 l 706 0 l 706 103 l 217 103 l 217 986 l 110 986 z "},"Ļ":{"ha":758,"x_min":0,"x_max":0,"o":"m 110 0 l 706 0 l 706 103 l 217 103 l 217 986 l 110 986 z m 329 -62 l 299 -272 l 399 -272 l 454 -62 z "},"Ŀ":{"ha":758,"x_min":0,"x_max":0,"o":"m 110 0 l 706 0 l 706 103 l 217 103 l 217 986 l 110 986 z m 615 460 b 690 535 653 460 690 492 b 615 610 690 575 653 610 b 539 535 578 610 539 575 b 615 460 539 492 578 460 z "},"Ľ":{"ha":757,"x_min":0,"x_max":0,"o":"m 108 0 l 704 0 l 704 103 l 215 103 l 215 986 l 108 986 z m 507 979 l 447 679 l 543 679 l 628 979 z "},"M":{"ha":1071,"x_min":0,"x_max":0,"o":"m 108 0 l 214 0 l 214 775 l 483 89 l 578 89 l 856 781 l 856 0 l 963 0 l 963 986 l 828 986 l 532 251 l 242 986 l 108 986 z "},"N":{"ha":960,"x_min":0,"x_max":0,"o":"m 108 0 l 215 0 l 215 810 l 722 0 l 851 0 l 851 986 l 744 986 l 744 172 l 235 986 l 108 986 z "},"Ń":{"ha":960,"x_min":0,"x_max":0,"o":"m 407 1050 l 506 1050 l 658 1208 l 551 1293 z m 108 0 l 215 0 l 215 810 l 722 0 l 851 0 l 851 986 l 744 986 l 744 172 l 235 986 l 108 986 z "},"Ň":{"ha":960,"x_min":0,"x_max":0,"o":"m 440 1042 l 547 1042 l 694 1193 l 642 1244 l 493 1140 l 343 1244 l 289 1192 z m 108 0 l 215 0 l 215 810 l 722 0 l 851 0 l 851 986 l 744 986 l 744 172 l 235 986 l 108 986 z "},"Ņ":{"ha":960,"x_min":0,"x_max":0,"o":"m 108 0 l 215 0 l 215 810 l 722 0 l 851 0 l 851 986 l 744 986 l 744 172 l 235 986 l 108 986 z m 426 -61 l 396 -271 l 496 -271 l 551 -61 z "},"Ñ":{"ha":960,"x_min":0,"x_max":0,"o":"m 238 1099 l 301 1078 b 401 1143 315 1119 354 1140 b 604 1088 476 1146 515 1082 b 739 1217 696 1094 738 1175 l 671 1240 b 592 1183 664 1214 638 1186 b 390 1239 538 1181 501 1246 b 238 1099 301 1232 244 1164 z m 108 0 l 215 0 l 215 810 l 722 0 l 851 0 l 851 986 l 744 986 l 744 172 l 235 986 l 108 986 z "},"O":{"ha":919,"x_min":0,"x_max":0,"o":"m 460 -11 b 849 500 671 -11 849 147 b 460 999 849 839 672 999 b 71 500 246 999 71 842 b 460 -11 71 135 256 -11 z m 460 92 b 178 500 304 92 178 204 b 460 896 178 779 301 896 b 743 500 614 896 743 779 b 460 92 743 213 615 92 z "},"Ó":{"ha":919,"x_min":0,"x_max":0,"o":"m 382 1097 l 481 1097 l 633 1256 l 526 1340 z m 460 -11 b 849 500 671 -11 849 147 b 460 999 849 839 672 999 b 71 500 246 999 71 842 b 460 -11 71 135 256 -11 z m 460 92 b 178 500 304 92 178 204 b 460 896 178 779 301 896 b 743 500 614 896 743 779 b 460 92 743 213 615 92 z "},"Ô":{"ha":919,"x_min":0,"x_max":0,"o":"m 313 1081 l 463 1185 l 608 1082 l 664 1133 l 515 1283 l 408 1283 l 258 1131 z m 460 -11 b 849 500 671 -11 849 147 b 460 999 849 839 672 999 b 71 500 246 999 71 842 b 460 -11 71 135 256 -11 z m 460 92 b 178 500 304 92 178 204 b 460 896 178 779 301 896 b 743 500 614 896 743 779 b 460 92 743 213 615 92 z "},"Ò":{"ha":919,"x_min":0,"x_max":0,"o":"m 418 1351 l 311 1267 l 464 1108 l 563 1108 z m 460 -11 b 849 500 671 -11 849 147 b 460 999 849 839 672 999 b 71 500 246 999 71 842 b 460 -11 71 135 256 -11 z m 460 92 b 178 500 304 92 178 204 b 460 896 178 779 301 896 b 743 500 614 896 743 779 b 460 92 743 213 615 92 z "},"Ö":{"ha":919,"x_min":0,"x_max":0,"o":"m 606 1081 b 676 1151 642 1081 676 1113 b 606 1222 676 1190 642 1222 b 536 1151 569 1222 536 1190 b 606 1081 536 1113 569 1081 z m 317 1081 b 388 1151 354 1081 388 1113 b 317 1222 388 1190 354 1222 b 247 1151 282 1222 247 1190 b 317 1081 247 1113 282 1081 z m 460 -11 b 849 500 671 -11 849 147 b 460 999 849 839 672 999 b 71 500 246 999 71 842 b 460 -11 71 135 256 -11 z m 460 92 b 178 500 304 92 178 204 b 460 896 178 779 301 896 b 743 500 614 896 743 779 b 460 92 743 213 615 92 z "},"Õ":{"ha":919,"x_min":0,"x_max":0,"o":"m 214 1108 l 278 1088 b 378 1153 292 1129 331 1150 b 581 1097 453 1156 492 1092 b 715 1226 672 1104 714 1185 l 647 1250 b 568 1193 640 1224 614 1196 b 367 1249 514 1190 478 1256 b 214 1108 278 1242 221 1174 z m 460 -11 b 849 500 671 -11 849 147 b 460 999 849 839 672 999 b 71 500 246 999 71 842 b 460 -11 71 135 256 -11 z m 460 92 b 178 500 304 92 178 204 b 460 896 178 779 301 896 b 743 500 614 896 743 779 b 460 92 743 213 615 92 z "},"Ŏ":{"ha":919,"x_min":0,"x_max":0,"o":"m 456 1082 b 690 1208 544 1082 638 1125 l 626 1268 b 456 1178 578 1208 515 1178 b 282 1268 396 1178 328 1214 l 219 1208 b 456 1082 272 1135 368 1082 z m 460 -11 b 849 500 671 -11 849 147 b 460 999 849 839 672 999 b 71 500 246 999 71 842 b 460 -11 71 135 256 -11 z m 460 92 b 178 500 304 92 178 204 b 460 896 178 779 301 896 b 743 500 614 896 743 779 b 460 92 743 213 615 92 z "},"Ő":{"ha":919,"x_min":0,"x_max":0,"o":"m 501 1093 l 594 1093 l 724 1272 l 619 1335 z m 289 1093 l 382 1093 l 510 1272 l 407 1335 z m 460 -11 b 849 500 671 -11 849 147 b 460 999 849 839 672 999 b 71 500 246 999 71 842 b 460 -11 71 135 256 -11 z m 460 92 b 178 500 304 92 178 204 b 460 896 178 779 301 896 b 743 500 614 896 743 779 b 460 92 743 213 615 92 z "},"Ō":{"ha":919,"x_min":0,"x_max":0,"o":"m 219 1110 l 724 1110 l 724 1203 l 219 1203 z m 460 -11 b 849 500 671 -11 849 147 b 460 999 849 839 672 999 b 71 500 246 999 71 842 b 460 -11 71 135 256 -11 z m 460 92 b 178 500 304 92 178 204 b 460 896 178 779 301 896 b 743 500 614 896 743 779 b 460 92 743 213 615 92 z "},"Ø":{"ha":919,"x_min":0,"x_max":0,"o":"m 178 500 b 460 896 178 779 301 896 b 619 843 518 896 574 879 l 226 240 b 178 500 196 303 178 389 z m 460 92 b 286 156 394 92 335 111 l 685 767 b 743 500 721 703 743 615 b 460 92 743 213 615 92 z m 460 -11 b 849 500 671 -11 849 147 b 746 861 849 660 810 779 l 821 976 l 740 1028 l 676 931 b 460 999 614 976 539 999 b 71 500 246 999 71 842 b 163 142 71 342 106 224 l 78 13 l 160 -39 l 229 68 b 460 -11 296 14 376 -11 z "},"Ǿ":{"ha":919,"x_min":0,"x_max":0,"o":"m 385 1111 l 483 1111 l 636 1269 l 529 1354 z m 178 500 b 460 896 178 779 301 896 b 619 843 518 896 574 879 l 226 240 b 178 500 196 303 178 389 z m 460 92 b 286 156 394 92 335 111 l 685 767 b 743 500 721 703 743 615 b 460 92 743 213 615 92 z m 460 -11 b 849 500 671 -11 849 147 b 746 861 849 660 810 779 l 821 976 l 740 1028 l 676 931 b 460 999 614 976 539 999 b 71 500 246 999 71 842 b 163 142 71 342 106 224 l 78 13 l 160 -39 l 229 68 b 460 -11 296 14 376 -11 z "},"Œ":{"ha":1365,"x_min":0,"x_max":0,"o":"m 413 92 b 131 500 257 92 131 204 b 413 896 131 779 254 896 b 696 500 567 896 696 779 b 413 92 696 213 568 92 z m 714 0 l 1342 0 l 1342 101 l 821 101 l 821 449 l 1225 449 l 1225 551 l 821 551 l 821 885 l 1329 885 l 1329 986 l 714 986 l 714 840 b 413 999 642 947 533 999 b 24 500 199 999 24 842 b 413 -11 24 135 208 -11 b 714 150 532 -11 642 40 z "},"P":{"ha":838,"x_min":0,"x_max":0,"o":"m 108 0 l 215 0 l 215 403 l 444 403 b 771 690 644 403 771 528 b 443 986 771 857 647 986 l 108 986 z m 215 883 l 438 883 b 663 690 567 883 663 813 b 439 506 663 572 565 506 l 215 506 z "},"Q":{"ha":919,"x_min":0,"x_max":0,"o":"m 763 -107 l 849 -46 l 728 107 b 849 500 801 190 849 319 b 460 999 849 839 672 999 b 71 500 246 999 71 842 b 460 -11 71 135 256 -11 b 647 39 526 -11 590 6 z m 460 92 b 178 500 304 92 178 204 b 460 896 178 779 301 896 b 743 500 614 896 743 779 b 460 92 743 213 615 92 z "},"R":{"ha":863,"x_min":0,"x_max":0,"o":"m 215 514 l 215 883 l 442 883 b 664 696 564 883 664 813 b 442 514 664 579 574 514 z m 108 0 l 215 0 l 215 413 l 474 413 l 667 0 l 785 0 l 581 435 b 774 696 674 458 774 547 b 443 986 774 857 646 986 l 108 986 z "},"Ř":{"ha":863,"x_min":0,"x_max":0,"o":"m 357 1097 l 464 1097 l 611 1249 l 558 1300 l 410 1196 l 260 1300 l 206 1247 z m 215 514 l 215 883 l 442 883 b 664 696 564 883 664 813 b 442 514 664 579 574 514 z m 108 0 l 215 0 l 215 413 l 474 413 l 667 0 l 785 0 l 581 435 b 774 696 674 458 774 547 b 443 986 774 857 646 986 l 108 986 z "},"Ŕ":{"ha":863,"x_min":0,"x_max":0,"o":"m 340 1085 l 439 1085 l 592 1243 l 485 1328 z m 214 514 l 214 883 l 440 883 b 663 696 563 883 663 813 b 440 514 663 579 572 514 z m 107 0 l 214 0 l 214 413 l 472 413 l 665 0 l 783 0 l 579 435 b 772 696 672 458 772 547 b 442 986 772 857 644 986 l 107 986 z "},"Ŗ":{"ha":863,"x_min":0,"x_max":0,"o":"m 215 514 l 215 883 l 442 883 b 664 696 564 883 664 813 b 442 514 664 579 574 514 z m 108 0 l 215 0 l 215 413 l 474 413 l 667 0 l 785 0 l 581 435 b 774 696 674 458 774 547 b 443 986 774 857 646 986 l 108 986 z m 360 -64 l 329 -274 l 429 -274 l 485 -64 z "},"S":{"ha":793,"x_min":0,"x_max":0,"o":"m 396 -12 b 728 278 581 -12 728 82 b 425 567 728 472 601 550 b 186 728 274 582 186 618 b 406 897 186 839 274 897 b 625 808 507 897 589 856 l 703 876 b 404 1000 642 947 550 1000 b 81 725 206 1000 81 893 b 364 464 81 564 219 478 b 621 276 536 450 621 418 b 393 92 621 157 532 92 b 114 236 269 92 181 150 l 38 165 b 396 -12 106 72 232 -12 z "},"Š":{"ha":793,"x_min":0,"x_max":0,"o":"m 346 1074 l 453 1074 l 600 1225 l 547 1276 l 399 1172 l 249 1276 l 194 1224 z m 396 -12 b 728 278 581 -12 728 82 b 425 567 728 472 601 550 b 186 728 274 582 186 618 b 406 897 186 839 274 897 b 625 808 507 897 589 856 l 703 876 b 404 1000 642 947 550 1000 b 81 725 206 1000 81 893 b 364 464 81 564 219 478 b 621 276 536 450 621 418 b 393 92 621 157 532 92 b 114 236 269 92 181 150 l 38 165 b 396 -12 106 72 232 -12 z "},"Ś":{"ha":793,"x_min":0,"x_max":0,"o":"m 297 1072 l 396 1072 l 549 1231 l 442 1315 z m 396 -12 b 728 278 581 -12 728 82 b 425 567 728 472 601 550 b 186 728 274 582 186 618 b 406 897 186 839 274 897 b 625 808 507 897 589 856 l 703 876 b 404 1000 642 947 550 1000 b 81 725 206 1000 81 893 b 364 464 81 564 219 478 b 621 276 536 450 621 418 b 393 92 621 157 532 92 b 114 236 269 92 181 150 l 38 165 b 396 -12 106 72 232 -12 z "},"Ş":{"ha":793,"x_min":0,"x_max":0,"o":"m 393 -342 b 554 -196 503 -342 554 -274 b 413 -49 554 -112 492 -58 l 418 -12 b 728 278 593 -4 728 90 b 425 567 728 472 601 550 b 186 728 274 582 186 618 b 406 897 186 839 274 897 b 625 808 507 897 589 856 l 703 876 b 404 1000 642 947 550 1000 b 81 725 206 1000 81 893 b 364 464 81 564 219 478 b 621 276 536 450 621 418 b 393 92 621 157 532 92 b 114 236 269 92 181 150 l 38 165 b 347 -10 99 82 207 6 l 321 -129 l 375 -135 b 463 -196 428 -140 463 -158 b 394 -250 463 -232 429 -250 b 297 -225 354 -250 324 -236 l 265 -308 b 393 -342 294 -321 340 -342 z "},"Ș":{"ha":793,"x_min":0,"x_max":0,"o":"m 396 -12 b 728 278 581 -12 728 82 b 425 567 728 472 601 550 b 186 728 274 582 186 618 b 406 897 186 839 274 897 b 625 808 507 897 589 856 l 703 876 b 404 1000 642 947 550 1000 b 81 725 206 1000 81 893 b 364 464 81 564 219 478 b 621 276 536 450 621 418 b 393 92 621 157 532 92 b 114 236 269 92 181 150 l 38 165 b 396 -12 106 72 232 -12 z m 343 -65 l 313 -275 l 413 -275 l 468 -65 z "},"T":{"ha":799,"x_min":0,"x_max":0,"o":"m 344 0 l 453 0 l 453 883 l 743 883 l 743 986 l 56 986 l 56 883 l 344 883 z "},"Ť":{"ha":799,"x_min":0,"x_max":0,"o":"m 347 1085 l 454 1085 l 601 1236 l 549 1288 l 400 1183 l 250 1288 l 196 1235 z m 344 0 l 453 0 l 453 883 l 743 883 l 743 986 l 56 986 l 56 883 l 344 883 z "},"Ţ":{"ha":799,"x_min":0,"x_max":0,"o":"m 388 -339 b 549 -193 497 -339 549 -271 b 407 -46 549 -110 486 -56 l 414 0 l 453 0 l 453 883 l 743 883 l 743 986 l 56 986 l 56 883 l 344 883 l 344 8 l 315 -126 l 369 -132 b 457 -193 422 -137 457 -156 b 389 -247 457 -229 424 -247 b 292 -222 349 -247 318 -233 l 260 -306 b 388 -339 289 -318 335 -339 z "},"Ț":{"ha":799,"x_min":0,"x_max":0,"o":"m 344 0 l 453 0 l 453 883 l 743 883 l 743 986 l 56 986 l 56 883 l 344 883 z m 340 -61 l 310 -271 l 410 -271 l 465 -61 z "},"Þ":{"ha":844,"x_min":0,"x_max":0,"o":"m 108 0 l 215 0 l 215 192 l 447 192 b 771 489 636 192 771 308 b 444 790 771 676 633 790 l 215 790 l 215 986 l 108 986 z m 215 293 l 215 690 l 450 690 b 663 492 571 690 661 614 b 450 293 663 371 572 293 z "},"U":{"ha":846,"x_min":0,"x_max":0,"o":"m 424 -15 b 767 403 646 -15 767 133 l 767 986 l 661 986 l 661 401 b 424 88 661 189 579 88 b 186 401 272 88 186 186 l 186 986 l 79 986 l 79 403 b 424 -15 79 128 207 -15 z "},"Ú":{"ha":846,"x_min":0,"x_max":0,"o":"m 329 1063 l 428 1063 l 581 1221 l 474 1306 z m 424 -15 b 767 403 646 -15 767 133 l 767 986 l 661 986 l 661 401 b 424 88 661 189 579 88 b 186 401 272 88 186 186 l 186 986 l 79 986 l 79 403 b 424 -15 79 128 207 -15 z "},"Û":{"ha":846,"x_min":0,"x_max":0,"o":"m 272 1065 l 422 1169 l 568 1067 l 624 1118 l 475 1268 l 368 1268 l 218 1115 z m 424 -15 b 767 403 646 -15 767 133 l 767 986 l 661 986 l 661 401 b 424 88 661 189 579 88 b 186 401 272 88 186 186 l 186 986 l 79 986 l 79 403 b 424 -15 79 128 207 -15 z "},"Ù":{"ha":844,"x_min":0,"x_max":0,"o":"m 383 1317 l 276 1232 l 429 1074 l 528 1074 z m 424 -15 b 767 403 646 -15 767 133 l 767 986 l 661 986 l 661 401 b 424 88 661 189 579 88 b 186 401 272 88 186 186 l 186 986 l 79 986 l 79 403 b 424 -15 79 128 207 -15 z "},"Ü":{"ha":846,"x_min":0,"x_max":0,"o":"m 571 1072 b 642 1143 607 1072 642 1104 b 571 1214 642 1182 607 1214 b 501 1143 535 1214 501 1182 b 571 1072 501 1104 535 1072 z m 282 1072 b 353 1143 319 1072 353 1104 b 282 1214 353 1182 319 1214 b 213 1143 247 1214 213 1182 b 282 1072 213 1104 247 1072 z m 424 -15 b 767 403 646 -15 767 133 l 767 986 l 661 986 l 661 401 b 424 88 661 189 579 88 b 186 401 272 88 186 186 l 186 986 l 79 986 l 79 403 b 424 -15 79 128 207 -15 z "},"Ŭ":{"ha":844,"x_min":0,"x_max":0,"o":"m 419 1071 b 654 1197 508 1071 601 1114 l 590 1257 b 419 1167 542 1197 479 1167 b 246 1257 360 1167 292 1203 l 183 1197 b 419 1071 236 1124 332 1071 z m 424 -15 b 767 403 646 -15 767 133 l 767 986 l 661 986 l 661 401 b 424 88 661 189 579 88 b 186 401 272 88 186 186 l 186 986 l 79 986 l 79 403 b 424 -15 79 128 207 -15 z "},"Ű":{"ha":844,"x_min":0,"x_max":0,"o":"m 444 1078 l 538 1078 l 667 1257 l 563 1319 z m 232 1078 l 325 1078 l 453 1257 l 350 1319 z m 424 -15 b 767 403 646 -15 767 133 l 767 986 l 661 986 l 661 401 b 424 88 661 189 579 88 b 186 401 272 88 186 186 l 186 986 l 79 986 l 79 403 b 424 -15 79 128 207 -15 z "},"Ū":{"ha":846,"x_min":0,"x_max":0,"o":"m 176 1111 l 681 1111 l 681 1204 l 176 1204 z m 424 -15 b 767 403 646 -15 767 133 l 767 986 l 661 986 l 661 401 b 424 88 661 189 579 88 b 186 401 272 88 186 186 l 186 986 l 79 986 l 79 403 b 424 -15 79 128 207 -15 z "},"Ų":{"ha":846,"x_min":0,"x_max":0,"o":"m 554 -285 l 554 -187 l 471 -187 b 431 -129 407 -187 406 -157 l 551 4 b 767 403 692 53 767 190 l 767 986 l 661 986 l 661 401 b 424 88 661 189 579 88 b 186 401 272 88 186 186 l 186 986 l 79 986 l 79 403 b 403 -15 79 136 199 -6 b 340 -87 379 -42 354 -71 b 450 -285 264 -178 324 -285 z "},"Ů":{"ha":846,"x_min":0,"x_max":0,"o":"m 422 1019 b 578 1175 503 1019 578 1088 b 422 1332 578 1258 501 1332 b 265 1175 342 1332 265 1258 b 422 1019 265 1088 340 1019 z m 422 1094 b 342 1174 375 1094 342 1128 b 422 1256 342 1217 376 1256 b 501 1174 468 1256 501 1217 b 422 1094 501 1128 469 1094 z m 424 -15 b 767 403 646 -15 767 133 l 767 986 l 661 986 l 661 401 b 424 88 661 189 579 88 b 186 401 272 88 186 186 l 186 986 l 79 986 l 79 403 b 424 -15 79 128 207 -15 z "},"V":{"ha":869,"x_min":0,"x_max":0,"o":"m 381 0 l 490 0 l 833 986 l 721 986 l 435 168 l 150 986 l 36 986 z "},"W":{"ha":1267,"x_min":0,"x_max":0,"o":"m 306 0 l 426 0 l 638 689 l 849 0 l 967 0 l 1231 986 l 1118 986 l 906 176 l 679 918 l 596 918 l 368 183 l 147 986 l 36 986 z "},"Ẃ":{"ha":1267,"x_min":0,"x_max":0,"o":"m 582 1042 l 681 1042 l 833 1200 l 726 1285 z m 306 0 l 426 0 l 638 689 l 849 0 l 967 0 l 1231 986 l 1118 986 l 906 176 l 679 918 l 596 918 l 368 183 l 147 986 l 36 986 z "},"Ŵ":{"ha":1267,"x_min":0,"x_max":0,"o":"m 488 1018 l 638 1122 l 783 1019 l 839 1071 l 690 1221 l 583 1221 l 433 1068 z m 306 0 l 426 0 l 638 689 l 849 0 l 967 0 l 1231 986 l 1118 986 l 906 176 l 679 918 l 596 918 l 368 183 l 147 986 l 36 986 z "},"Ẅ":{"ha":1267,"x_min":0,"x_max":0,"o":"m 779 1053 b 850 1124 815 1053 850 1085 b 779 1194 850 1163 815 1194 b 710 1124 743 1194 710 1163 b 779 1053 710 1085 743 1053 z m 490 1053 b 561 1124 528 1053 561 1085 b 490 1194 561 1163 528 1194 b 421 1124 456 1194 421 1163 b 490 1053 421 1085 456 1053 z m 306 0 l 426 0 l 638 689 l 849 0 l 967 0 l 1231 986 l 1118 986 l 906 176 l 679 918 l 596 918 l 368 183 l 147 986 l 36 986 z "},"Ẁ":{"ha":1267,"x_min":0,"x_max":0,"o":"m 583 1289 l 476 1204 l 629 1046 l 728 1046 z m 306 0 l 426 0 l 638 689 l 849 0 l 967 0 l 1231 986 l 1118 986 l 906 176 l 679 918 l 596 918 l 368 183 l 147 986 l 36 986 z "},"X":{"ha":860,"x_min":0,"x_max":0,"o":"m 43 0 l 169 0 l 426 394 l 669 0 l 794 0 l 492 490 l 817 986 l 689 986 l 426 583 l 178 986 l 51 986 l 360 490 z "},"Y":{"ha":843,"x_min":0,"x_max":0,"o":"m 368 0 l 475 0 l 475 390 l 806 986 l 683 986 l 422 514 l 160 986 l 38 986 l 368 390 z "},"Ÿ":{"ha":843,"x_min":0,"x_max":0,"o":"m 565 1086 b 636 1157 601 1086 636 1118 b 565 1228 636 1196 601 1228 b 496 1157 529 1228 496 1196 b 565 1086 496 1118 529 1086 z m 276 1086 b 347 1157 314 1086 347 1118 b 276 1228 347 1196 314 1228 b 207 1157 242 1228 207 1196 b 276 1086 207 1118 242 1086 z m 368 0 l 475 0 l 475 390 l 806 986 l 683 986 l 422 514 l 160 986 l 38 986 l 368 390 z "},"Ý":{"ha":843,"x_min":0,"x_max":0,"o":"m 332 1060 l 431 1060 l 583 1218 l 476 1303 z m 368 0 l 475 0 l 475 390 l 806 986 l 683 986 l 422 514 l 160 986 l 38 986 l 368 390 z "},"Ŷ":{"ha":843,"x_min":0,"x_max":0,"o":"m 274 1068 l 424 1172 l 569 1069 l 625 1121 l 476 1271 l 369 1271 l 219 1118 z m 368 0 l 475 0 l 475 390 l 806 986 l 683 986 l 422 514 l 160 986 l 38 986 l 368 390 z "},"Ỳ":{"ha":843,"x_min":0,"x_max":0,"o":"m 397 1314 l 290 1229 l 443 1071 l 542 1071 z m 368 0 l 475 0 l 475 390 l 806 986 l 683 986 l 422 514 l 160 986 l 38 986 l 368 390 z "},"Z":{"ha":775,"x_min":0,"x_max":0,"o":"m 49 0 l 726 0 l 726 103 l 182 103 l 724 896 l 724 986 l 65 986 l 65 883 l 583 883 l 49 101 z "},"Ž":{"ha":775,"x_min":0,"x_max":0,"o":"m 343 1110 l 450 1110 l 597 1261 l 544 1313 l 396 1208 l 246 1313 l 192 1260 z m 50 0 l 728 0 l 728 103 l 183 103 l 725 896 l 725 986 l 67 986 l 67 883 l 585 883 l 50 101 z "},"Ź":{"ha":775,"x_min":0,"x_max":0,"o":"m 306 1099 l 404 1099 l 557 1257 l 450 1342 z m 50 0 l 728 0 l 728 103 l 183 103 l 725 896 l 725 986 l 67 986 l 67 883 l 585 883 l 50 101 z "},"Ż":{"ha":775,"x_min":0,"x_max":0,"o":"m 401 1128 b 476 1203 439 1128 476 1160 b 401 1278 476 1243 439 1278 b 325 1203 364 1278 325 1243 b 401 1128 325 1160 364 1128 z m 50 0 l 728 0 l 728 103 l 183 103 l 725 896 l 725 986 l 67 986 l 67 883 l 585 883 l 50 101 z "},"a":{"ha":733,"x_min":0,"x_max":0,"o":"m 326 82 b 169 207 231 82 169 126 b 351 338 169 276 225 335 b 538 319 433 339 503 329 l 538 214 b 326 82 522 156 426 82 z m 303 -11 b 543 92 422 -11 517 46 l 543 0 l 643 0 l 643 435 b 365 736 643 651 528 736 b 103 615 243 736 150 685 l 190 571 b 356 638 222 614 279 638 b 538 438 468 638 538 594 l 538 407 b 351 433 500 421 429 433 b 65 201 165 433 65 326 b 303 -11 65 88 167 -11 z "},"á":{"ha":733,"x_min":0,"x_max":0,"o":"m 267 846 l 365 846 l 518 1004 l 411 1089 z m 326 82 b 169 207 231 82 169 126 b 351 338 169 276 225 335 b 538 319 433 339 503 329 l 538 214 b 326 82 522 156 426 82 z m 303 -11 b 543 92 422 -11 517 46 l 543 0 l 643 0 l 643 435 b 365 736 643 651 528 736 b 103 615 243 736 150 685 l 190 571 b 356 638 222 614 279 638 b 538 438 468 638 538 594 l 538 407 b 351 433 500 421 429 433 b 65 201 165 433 65 326 b 303 -11 65 88 167 -11 z "},"ă":{"ha":733,"x_min":0,"x_max":0,"o":"m 363 864 b 597 990 451 864 544 907 l 533 1050 b 363 960 485 990 422 960 b 189 1050 303 960 235 996 l 126 990 b 363 864 179 917 275 864 z m 326 82 b 169 207 231 82 169 126 b 351 338 169 276 225 335 b 538 319 433 339 503 329 l 538 214 b 326 82 522 156 426 82 z m 303 -11 b 543 92 422 -11 517 46 l 543 0 l 643 0 l 643 435 b 365 736 643 651 528 736 b 103 615 243 736 150 685 l 190 571 b 356 638 222 614 279 638 b 538 438 468 638 538 594 l 538 407 b 351 433 500 421 429 433 b 65 201 165 433 65 326 b 303 -11 65 88 167 -11 z "},"â":{"ha":733,"x_min":0,"x_max":0,"o":"m 204 858 l 354 963 l 500 860 l 556 911 l 407 1061 l 300 1061 l 150 908 z m 326 82 b 169 207 231 82 169 126 b 351 338 169 276 225 335 b 538 319 433 339 503 329 l 538 214 b 326 82 522 156 426 82 z m 303 -11 b 543 92 422 -11 517 46 l 543 0 l 643 0 l 643 435 b 365 736 643 651 528 736 b 103 615 243 736 150 685 l 190 571 b 356 638 222 614 279 638 b 538 438 468 638 538 594 l 538 407 b 351 433 500 421 429 433 b 65 201 165 433 65 326 b 303 -11 65 88 167 -11 z "},"ä":{"ha":733,"x_min":0,"x_max":0,"o":"m 503 908 b 574 979 539 908 574 940 b 503 1050 574 1018 539 1050 b 433 979 467 1050 433 1018 b 503 908 433 940 467 908 z m 214 908 b 285 979 251 908 285 940 b 214 1050 285 1018 251 1050 b 144 979 179 1050 144 1018 b 214 908 144 940 179 908 z m 326 82 b 169 207 231 82 169 126 b 351 338 169 276 225 335 b 538 319 433 339 503 329 l 538 214 b 326 82 522 156 426 82 z m 303 -11 b 543 92 422 -11 517 46 l 543 0 l 643 0 l 643 435 b 365 736 643 651 528 736 b 103 615 243 736 150 685 l 190 571 b 356 638 222 614 279 638 b 538 438 468 638 538 594 l 538 407 b 351 433 500 421 429 433 b 65 201 165 433 65 326 b 303 -11 65 88 167 -11 z "},"à":{"ha":733,"x_min":0,"x_max":0,"o":"m 333 1081 l 226 996 l 379 838 l 478 838 z m 326 82 b 169 207 231 82 169 126 b 351 338 169 276 225 335 b 538 319 433 339 503 329 l 538 214 b 326 82 522 156 426 82 z m 303 -11 b 543 92 422 -11 517 46 l 543 0 l 643 0 l 643 435 b 365 736 643 651 528 736 b 103 615 243 736 150 685 l 190 571 b 356 638 222 614 279 638 b 538 438 468 638 538 594 l 538 407 b 351 433 500 421 429 433 b 65 201 165 433 65 326 b 303 -11 65 88 167 -11 z "},"ā":{"ha":733,"x_min":0,"x_max":0,"o":"m 107 921 l 611 921 l 611 1014 l 107 1014 z m 326 82 b 169 207 231 82 169 126 b 351 338 169 276 225 335 b 538 319 433 339 503 329 l 538 214 b 326 82 522 156 426 82 z m 303 -11 b 543 92 422 -11 517 46 l 543 0 l 643 0 l 643 435 b 365 736 643 651 528 736 b 103 615 243 736 150 685 l 190 571 b 356 638 222 614 279 638 b 538 438 468 638 538 594 l 538 407 b 351 433 500 421 429 433 b 65 201 165 433 65 326 b 303 -11 65 88 167 -11 z "},"ą":{"ha":735,"x_min":0,"x_max":0,"o":"m 326 82 b 169 207 231 82 169 126 b 351 338 169 276 225 335 b 538 319 433 339 503 329 l 538 214 b 326 82 522 156 426 82 z m 625 -201 l 542 -201 b 501 -143 478 -201 476 -171 l 631 0 l 643 0 l 643 435 b 365 736 643 651 528 736 b 103 615 243 736 150 685 l 190 571 b 356 638 222 614 279 638 b 538 438 468 638 538 594 l 538 407 b 351 433 500 421 429 433 b 65 201 165 433 65 326 b 303 -11 65 88 167 -11 b 543 92 422 -11 517 46 l 543 43 b 529 33 538 42 533 38 b 411 -101 507 8 438 -68 b 521 -299 335 -192 394 -299 l 625 -299 z "},"å":{"ha":733,"x_min":0,"x_max":0,"o":"m 356 763 b 511 918 436 763 511 831 b 356 1075 511 1001 435 1075 b 199 918 275 1075 199 1001 b 356 763 199 831 274 763 z m 356 838 b 275 917 308 838 275 871 b 356 999 275 960 310 999 b 435 917 401 999 435 960 b 356 838 435 871 403 838 z m 326 82 b 169 207 231 82 169 126 b 351 338 169 276 225 335 b 538 319 433 339 503 329 l 538 214 b 326 82 522 156 426 82 z m 303 -11 b 543 92 422 -11 517 46 l 543 0 l 643 0 l 643 435 b 365 736 643 651 528 736 b 103 615 243 736 150 685 l 190 571 b 356 638 222 614 279 638 b 538 438 468 638 538 594 l 538 407 b 351 433 500 421 429 433 b 65 201 165 433 65 326 b 303 -11 65 88 167 -11 z "},"ǻ":{"ha":733,"x_min":0,"x_max":0,"o":"m 356 763 b 511 918 436 763 511 831 b 400 1067 511 985 461 1046 l 544 1217 l 438 1301 l 294 1061 b 199 918 240 1036 199 979 b 356 763 199 831 274 763 z m 356 838 b 275 917 308 838 275 871 b 356 999 275 960 310 999 b 435 917 401 999 435 960 b 356 838 435 871 403 838 z m 326 82 b 169 207 231 82 169 126 b 351 338 169 276 225 335 b 538 319 433 339 503 329 l 538 214 b 326 82 522 156 426 82 z m 303 -11 b 543 92 422 -11 517 46 l 543 0 l 643 0 l 643 435 b 365 736 643 651 528 736 b 103 615 243 736 150 685 l 190 571 b 356 638 222 614 279 638 b 538 438 468 638 538 594 l 538 407 b 351 433 500 421 429 433 b 65 201 165 433 65 326 b 303 -11 65 88 167 -11 z "},"ã":{"ha":733,"x_min":0,"x_max":0,"o":"m 99 917 l 163 896 b 263 961 176 938 215 958 b 465 906 338 964 376 900 b 600 1035 557 913 599 993 l 532 1058 b 453 1001 525 1032 499 1004 b 251 1057 399 999 363 1064 b 99 917 163 1050 106 982 z m 326 82 b 169 207 231 82 169 126 b 351 338 169 276 225 335 b 538 319 433 339 503 329 l 538 214 b 326 82 522 156 426 82 z m 303 -11 b 543 92 422 -11 517 46 l 543 0 l 643 0 l 643 435 b 365 736 643 651 528 736 b 103 615 243 736 150 685 l 190 571 b 356 638 222 614 279 638 b 538 438 468 638 538 594 l 538 407 b 351 433 500 421 429 433 b 65 201 165 433 65 326 b 303 -11 65 88 167 -11 z "},"æ":{"ha":1165,"x_min":0,"x_max":0,"o":"m 624 415 b 831 639 632 549 714 639 b 1028 415 944 639 1028 560 z m 840 -17 b 1126 106 975 -17 1064 25 l 1051 169 b 846 81 1010 113 938 81 b 624 324 731 81 626 158 l 1133 324 l 1133 393 b 831 736 1133 618 1000 736 b 578 596 729 736 636 688 b 322 739 529 697 440 739 b 61 621 186 739 103 675 l 140 567 b 318 644 171 596 211 644 b 510 426 444 644 499 569 l 510 417 b 322 438 475 428 401 438 b 32 204 140 438 32 347 b 301 -11 32 82 139 -11 b 571 135 410 -11 513 32 b 840 -17 631 32 733 -17 z m 297 82 b 135 211 193 82 135 138 b 325 347 135 288 194 344 b 510 326 386 351 469 343 l 510 294 b 297 82 504 146 413 82 z "},"ǽ":{"ha":1165,"x_min":0,"x_max":0,"o":"m 521 807 l 619 807 l 772 965 l 665 1050 z m 624 415 b 831 639 632 549 714 639 b 1028 415 944 639 1028 560 z m 840 -17 b 1126 106 975 -17 1064 25 l 1051 169 b 846 81 1010 113 938 81 b 624 324 731 81 626 158 l 1133 324 l 1133 393 b 831 736 1133 618 1000 736 b 578 596 729 736 636 688 b 322 739 529 697 440 739 b 61 621 186 739 103 675 l 140 567 b 318 644 171 596 211 644 b 510 426 444 644 499 569 l 510 417 b 322 438 475 428 401 438 b 32 204 140 438 32 347 b 301 -11 32 82 139 -11 b 571 135 410 -11 513 32 b 840 -17 631 32 733 -17 z m 297 82 b 135 211 193 82 135 138 b 325 347 135 288 194 344 b 510 326 386 351 469 343 l 510 294 b 297 82 504 146 413 82 z "},"b":{"ha":790,"x_min":0,"x_max":0,"o":"m 108 0 l 217 0 l 217 117 b 433 -12 247 42 339 -12 b 725 367 575 -12 725 106 b 433 736 725 622 586 736 b 219 606 347 736 246 675 l 219 986 l 108 986 z m 418 86 b 217 365 326 86 217 172 b 417 636 217 544 313 636 b 615 365 522 636 615 556 b 418 86 615 168 507 86 z "},"c":{"ha":735,"x_min":0,"x_max":0,"o":"m 381 -19 b 669 201 519 -19 638 64 l 560 201 b 381 79 532 122 465 79 b 171 351 283 79 171 157 b 382 636 171 558 278 636 b 560 496 465 636 539 589 l 669 496 b 382 736 646 651 517 736 b 65 354 225 736 65 621 b 381 -19 65 97 228 -19 z "},"ć":{"ha":735,"x_min":0,"x_max":0,"o":"m 292 850 l 390 850 l 543 1008 l 436 1093 z m 381 -19 b 669 201 519 -19 638 64 l 560 201 b 381 79 532 122 465 79 b 171 351 283 79 171 157 b 382 636 171 558 278 636 b 560 496 465 636 539 589 l 669 496 b 382 736 646 651 517 736 b 65 354 225 736 65 621 b 381 -19 65 97 228 -19 z "},"č":{"ha":735,"x_min":0,"x_max":0,"o":"m 332 872 l 439 872 l 586 1024 l 533 1075 l 385 971 l 235 1075 l 181 1022 z m 381 -19 b 669 201 519 -19 638 64 l 560 201 b 381 79 532 122 465 79 b 171 351 283 79 171 157 b 382 636 171 558 278 636 b 560 496 465 636 539 589 l 669 496 b 382 736 646 651 517 736 b 65 354 225 736 65 621 b 381 -19 65 97 228 -19 z "},"ç":{"ha":735,"x_min":0,"x_max":0,"o":"m 358 -350 b 519 -204 468 -350 519 -282 b 378 -57 519 -121 457 -67 l 383 -19 b 669 201 519 -19 638 64 l 560 201 b 381 79 532 122 465 79 b 171 351 283 79 171 157 b 382 636 171 558 278 636 b 560 496 465 636 539 589 l 669 496 b 382 736 646 651 517 736 b 65 354 225 736 65 621 b 314 -12 65 135 183 18 l 286 -137 l 340 -143 b 428 -204 393 -149 428 -167 b 360 -258 428 -240 394 -258 b 263 -233 319 -258 289 -244 l 231 -317 b 358 -350 260 -329 306 -350 z "},"ċ":{"ha":735,"x_min":0,"x_max":0,"o":"m 375 901 b 450 976 413 901 450 933 b 375 1051 450 1017 413 1051 b 299 976 338 1051 299 1017 b 375 901 299 933 338 901 z m 381 -19 b 669 201 519 -19 638 64 l 560 201 b 381 79 532 122 465 79 b 171 351 283 79 171 157 b 382 636 171 558 278 636 b 560 496 465 636 539 589 l 669 496 b 382 736 646 651 517 736 b 65 354 225 736 65 621 b 381 -19 65 97 228 -19 z "},"d":{"ha":790,"x_min":0,"x_max":0,"o":"m 372 86 b 175 365 283 86 175 168 b 374 636 175 551 268 636 b 574 365 478 636 574 544 b 372 86 574 172 464 86 z m 357 -12 b 574 117 451 -12 543 42 l 574 0 l 682 0 l 682 986 l 571 986 l 571 606 b 357 736 544 675 443 736 b 65 367 204 736 65 619 b 357 -12 65 106 215 -12 z "},"ď":{"ha":990,"x_min":0,"x_max":0,"o":"m 879 986 l 819 686 l 915 686 l 1000 986 z m 372 86 b 175 365 283 86 175 168 b 374 636 175 551 268 636 b 574 365 478 636 574 544 b 372 86 574 172 464 86 z m 357 -12 b 574 117 451 -12 543 42 l 574 0 l 682 0 l 682 986 l 571 986 l 571 606 b 357 736 544 675 443 736 b 65 367 204 736 65 619 b 357 -12 65 106 215 -12 z "},"đ":{"ha":797,"x_min":0,"x_max":0,"o":"m 372 86 b 175 365 283 86 175 168 b 374 636 175 551 268 636 b 574 365 478 636 574 544 b 372 86 574 172 464 86 z m 574 117 l 574 0 l 682 0 l 682 808 l 779 808 l 779 900 l 682 900 l 682 986 l 571 986 l 571 900 l 360 900 l 360 808 l 571 808 l 571 606 b 357 736 544 675 443 736 b 65 367 204 736 65 619 b 357 -12 65 106 215 -12 b 574 117 451 -12 543 42 z "},"ð":{"ha":772,"x_min":0,"x_max":0,"o":"m 367 -12 b 671 361 532 -12 671 110 b 585 844 671 583 639 733 l 697 869 l 672 958 l 540 925 b 425 1056 506 975 467 1017 l 357 976 b 432 897 386 953 411 925 l 244 849 l 263 775 l 481 822 b 551 610 528 736 549 651 b 368 701 525 661 457 701 b 65 343 208 701 65 583 b 367 -12 65 103 215 -12 z m 368 88 b 174 343 275 88 174 160 b 371 601 174 518 260 601 b 564 347 481 601 564 511 b 368 88 564 160 461 88 z "},"e":{"ha":749,"x_min":0,"x_max":0,"o":"m 390 -17 b 676 106 525 -17 614 25 l 601 169 b 396 81 560 113 488 81 b 174 324 281 81 176 158 l 683 324 l 683 393 b 381 736 683 618 550 736 b 65 360 213 736 65 603 b 390 -17 65 104 222 -17 z m 174 415 b 381 639 182 549 264 639 b 578 415 494 639 578 560 z "},"é":{"ha":749,"x_min":0,"x_max":0,"o":"m 296 844 l 394 844 l 547 1003 l 440 1088 z m 390 -17 b 676 106 525 -17 614 25 l 601 169 b 396 81 560 113 488 81 b 174 324 281 81 176 158 l 683 324 l 683 393 b 381 736 683 618 550 736 b 65 360 213 736 65 603 b 390 -17 65 104 222 -17 z m 174 415 b 381 639 182 549 264 639 b 578 415 494 639 578 560 z "},"ĕ":{"ha":749,"x_min":0,"x_max":0,"o":"m 381 888 b 615 1014 469 888 563 931 l 551 1074 b 381 983 503 1014 440 983 b 207 1074 321 983 253 1019 l 144 1014 b 381 888 197 940 293 888 z m 390 -17 b 676 106 525 -17 614 25 l 601 169 b 396 81 560 113 488 81 b 174 324 281 81 176 158 l 683 324 l 683 393 b 381 736 683 618 550 736 b 65 360 213 736 65 603 b 390 -17 65 104 222 -17 z m 174 415 b 381 639 182 549 264 639 b 578 415 494 639 578 560 z "},"ě":{"ha":749,"x_min":0,"x_max":0,"o":"m 326 864 l 433 864 l 581 1015 l 528 1067 l 379 963 l 229 1067 l 175 1014 z m 390 -17 b 676 106 525 -17 614 25 l 601 169 b 396 81 560 113 488 81 b 174 324 281 81 176 158 l 683 324 l 683 393 b 381 736 683 618 550 736 b 65 360 213 736 65 603 b 390 -17 65 104 222 -17 z m 174 415 b 381 639 182 549 264 639 b 578 415 494 639 578 560 z "},"ê":{"ha":749,"x_min":0,"x_max":0,"o":"m 240 860 l 390 964 l 536 861 l 592 913 l 443 1063 l 336 1063 l 186 910 z m 390 -17 b 676 106 525 -17 614 25 l 601 169 b 396 81 560 113 488 81 b 174 324 281 81 176 158 l 683 324 l 683 393 b 381 736 683 618 550 736 b 65 360 213 736 65 603 b 390 -17 65 104 222 -17 z m 174 415 b 381 639 182 549 264 639 b 578 415 494 639 578 560 z "},"ë":{"ha":749,"x_min":0,"x_max":0,"o":"m 532 903 b 603 974 568 903 603 935 b 532 1044 603 1013 568 1044 b 463 974 496 1044 463 1013 b 532 903 463 935 496 903 z m 243 903 b 314 974 281 903 314 935 b 243 1044 314 1013 281 1044 b 174 974 208 1044 174 1013 b 243 903 174 935 208 903 z m 390 -17 b 676 106 525 -17 614 25 l 601 169 b 396 81 560 113 488 81 b 174 324 281 81 176 158 l 683 324 l 683 393 b 381 736 683 618 550 736 b 65 360 213 736 65 603 b 390 -17 65 104 222 -17 z m 174 415 b 381 639 182 549 264 639 b 578 415 494 639 578 560 z "},"ė":{"ha":749,"x_min":0,"x_max":0,"o":"m 383 903 b 458 978 421 903 458 935 b 383 1053 458 1018 421 1053 b 307 978 346 1053 307 1018 b 383 903 307 935 346 903 z m 390 -17 b 676 106 525 -17 614 25 l 601 169 b 396 81 560 113 488 81 b 174 324 281 81 176 158 l 683 324 l 683 393 b 381 736 683 618 550 736 b 65 360 213 736 65 603 b 390 -17 65 104 222 -17 z m 174 415 b 381 639 182 549 264 639 b 578 415 494 639 578 560 z "},"è":{"ha":749,"x_min":0,"x_max":0,"o":"m 350 1086 l 243 1001 l 396 843 l 494 843 z m 390 -17 b 676 106 525 -17 614 25 l 601 169 b 396 81 560 113 488 81 b 174 324 281 81 176 158 l 683 324 l 683 393 b 381 736 683 618 550 736 b 65 360 213 736 65 603 b 390 -17 65 104 222 -17 z m 174 415 b 381 639 182 549 264 639 b 578 415 494 639 578 560 z "},"ē":{"ha":749,"x_min":0,"x_max":0,"o":"m 131 918 l 635 918 l 635 1011 l 131 1011 z m 390 -17 b 676 106 525 -17 614 25 l 601 169 b 396 81 560 113 488 81 b 174 324 281 81 176 158 l 683 324 l 683 393 b 381 736 683 618 550 736 b 65 360 213 736 65 603 b 390 -17 65 104 222 -17 z m 174 415 b 381 639 182 549 264 639 b 578 415 494 639 578 560 z "},"ę":{"ha":749,"x_min":0,"x_max":0,"o":"m 613 -247 l 614 -150 l 531 -150 b 490 -92 467 -150 465 -119 l 613 43 b 676 106 636 61 657 82 l 601 169 b 396 81 560 113 488 81 b 174 324 281 81 176 158 l 683 324 l 683 393 b 381 736 683 618 550 736 b 65 360 213 736 65 603 b 390 -17 65 104 222 -17 b 428 -15 403 -17 417 -17 b 400 -50 417 -29 407 -40 b 508 -247 324 -139 382 -247 z m 174 415 b 381 639 182 549 264 639 b 578 415 494 639 578 560 z "},"f":{"ha":517,"x_min":0,"x_max":0,"o":"m 168 0 l 276 0 l 276 624 l 453 624 l 453 722 l 276 722 l 276 767 b 457 917 276 894 335 921 l 457 1017 l 406 1017 b 168 769 249 1017 168 919 l 168 722 l 60 722 l 60 624 l 168 624 z "},"g":{"ha":781,"x_min":0,"x_max":0,"o":"m 372 88 b 174 354 257 88 172 174 b 372 638 174 544 258 638 b 564 356 479 638 564 557 b 372 88 564 183 479 88 z m 353 -307 b 672 71 533 -307 672 -201 l 672 722 l 565 722 l 563 628 b 356 739 533 694 456 739 b 65 356 200 739 65 603 b 356 -12 65 118 199 -12 b 563 113 446 -12 538 42 l 563 69 b 351 -204 563 -137 483 -204 b 176 -126 278 -204 221 -179 l 82 -175 b 353 -307 140 -260 243 -307 z "},"ğ":{"ha":781,"x_min":0,"x_max":0,"o":"m 389 883 b 624 1010 478 883 571 926 l 560 1069 b 389 979 511 1010 449 979 b 215 1069 329 979 261 1015 l 153 1010 b 389 883 206 936 301 883 z m 372 88 b 174 354 257 88 172 174 b 372 638 174 544 258 638 b 564 356 479 638 564 557 b 372 88 564 183 479 88 z m 353 -307 b 672 71 533 -307 672 -201 l 672 722 l 565 722 l 563 628 b 356 739 533 694 456 739 b 65 356 200 739 65 603 b 356 -12 65 118 199 -12 b 563 113 446 -12 538 42 l 563 69 b 351 -204 563 -137 483 -204 b 176 -126 278 -204 221 -179 l 82 -175 b 353 -307 140 -260 243 -307 z "},"ģ":{"ha":781,"x_min":0,"x_max":0,"o":"m 450 876 l 481 1086 l 381 1086 l 325 876 z m 372 88 b 174 354 257 88 172 174 b 372 638 174 544 258 638 b 564 356 479 638 564 557 b 372 88 564 183 479 88 z m 353 -307 b 672 71 533 -307 672 -201 l 672 722 l 565 722 l 563 628 b 356 739 533 694 456 739 b 65 356 200 739 65 603 b 356 -12 65 118 199 -12 b 563 113 446 -12 538 42 l 563 69 b 351 -204 563 -137 483 -204 b 176 -126 278 -204 221 -179 l 82 -175 b 353 -307 140 -260 243 -307 z "},"ġ":{"ha":781,"x_min":0,"x_max":0,"o":"m 406 901 b 481 976 443 901 481 933 b 406 1051 481 1017 443 1051 b 329 976 368 1051 329 1017 b 406 901 329 933 368 901 z m 372 88 b 174 354 257 88 172 174 b 372 638 174 544 258 638 b 564 356 479 638 564 557 b 372 88 564 183 479 88 z m 353 -307 b 672 71 533 -307 672 -201 l 672 722 l 565 722 l 563 628 b 356 739 533 694 456 739 b 65 356 200 739 65 603 b 356 -12 65 118 199 -12 b 563 113 446 -12 538 42 l 563 69 b 351 -204 563 -137 483 -204 b 176 -126 278 -204 221 -179 l 82 -175 b 353 -307 140 -260 243 -307 z "},"h":{"ha":778,"x_min":0,"x_max":0,"o":"m 108 0 l 217 0 l 217 410 b 407 636 217 546 299 636 b 582 410 521 636 582 576 l 582 0 l 692 0 l 692 410 b 419 736 692 629 588 736 b 217 611 333 736 239 678 l 217 986 l 108 986 z "},"ħ":{"ha":789,"x_min":0,"x_max":0,"o":"m 226 410 b 417 636 226 546 308 636 b 592 410 531 636 592 576 l 592 0 l 701 0 l 701 410 b 429 736 701 629 597 736 b 226 611 343 736 249 678 l 226 806 l 436 806 l 436 893 l 226 893 l 226 986 l 118 986 l 118 893 l 17 893 l 17 806 l 118 806 l 118 0 l 226 0 z "},"i":{"ha":324,"x_min":0,"x_max":0,"o":"m 161 864 b 233 933 199 864 233 892 b 161 1001 233 974 199 1001 b 90 933 125 1001 90 974 b 161 864 90 892 125 864 z m 114 0 l 221 0 l 221 722 l 114 722 z "},"ı":{"ha":324,"x_min":0,"x_max":0,"o":"m 108 0 l 215 0 l 215 722 l 108 722 z "},"í":{"ha":324,"x_min":0,"x_max":0,"o":"m 108 856 l 207 856 l 310 1003 l 201 1088 z m 108 0 l 215 0 l 215 722 l 108 722 z "},"î":{"ha":324,"x_min":0,"x_max":0,"o":"m 71 872 l 163 956 l 253 874 l 319 922 l 217 1061 l 108 1061 l 4 921 z m 108 0 l 215 0 l 215 722 l 108 722 z "},"ì":{"ha":324,"x_min":0,"x_max":0,"o":"m 124 858 l 225 858 l 136 1089 l 32 1010 z m 108 0 l 215 0 l 215 722 l 108 722 z "},"ï":{"ha":324,"x_min":0,"x_max":0,"o":"m 260 894 b 326 967 297 894 326 924 b 260 1038 326 1008 297 1038 b 192 967 222 1038 192 1008 b 260 894 192 924 222 894 z m 64 896 b 133 967 101 896 133 925 b 64 1038 133 1008 101 1038 b -3 967 26 1038 -3 1008 b 64 896 -3 925 26 896 z m 108 0 l 215 0 l 215 722 l 108 722 z "},"ĭ":{"ha":324,"x_min":0,"x_max":0,"o":"m 161 881 b 344 1028 242 881 322 936 l 275 1057 b 161 976 254 1008 211 976 b 46 1057 111 976 69 1006 l -21 1021 b 161 881 6 939 82 881 z m 108 0 l 215 0 l 215 722 l 108 722 z "},"ī":{"ha":324,"x_min":0,"x_max":0,"o":"m 19 910 l 304 910 l 304 1017 l 19 1017 z m 108 0 l 215 0 l 215 722 l 108 722 z "},"į":{"ha":343,"x_min":0,"x_max":0,"o":"m 163 864 b 235 933 200 864 235 892 b 163 1001 235 974 200 1001 b 92 933 126 1001 92 974 b 163 864 92 892 126 864 z m 217 -200 l 133 -200 b 93 -142 69 -200 68 -169 l 221 0 l 222 0 l 222 722 l 115 722 l 115 29 b 3 -100 89 -1 28 -69 b 113 -297 -74 -190 -14 -297 l 217 -297 z "},"j":{"ha":356,"x_min":0,"x_max":0,"o":"m 192 858 b 261 928 229 858 261 886 b 192 996 261 968 229 996 b 119 928 151 996 119 968 b 192 858 119 886 151 858 z m -10 -279 b 246 -3 111 -289 246 -207 l 246 722 l 138 722 l 138 -1 b -10 -178 138 -131 67 -185 z "},"k":{"ha":722,"x_min":0,"x_max":0,"o":"m 108 0 l 217 0 l 217 264 l 307 351 l 575 0 l 704 0 l 382 422 l 675 722 l 531 722 l 217 401 l 217 986 l 108 986 z "},"ķ":{"ha":722,"x_min":0,"x_max":0,"o":"m 108 0 l 217 0 l 217 264 l 307 351 l 575 0 l 704 0 l 382 422 l 675 722 l 531 722 l 217 401 l 217 986 l 108 986 z m 317 -122 l 286 -332 l 386 -332 l 442 -122 z "},"l":{"ha":325,"x_min":0,"x_max":0,"o":"m 108 0 l 217 0 l 217 986 l 108 986 z "},"ł":{"ha":396,"x_min":0,"x_max":0,"o":"m 250 0 l 250 539 l 382 603 l 336 699 l 250 657 l 250 986 l 142 986 l 142 603 l 14 540 l 61 447 l 142 486 l 142 0 z "},"ĺ":{"ha":325,"x_min":0,"x_max":0,"o":"m 106 1061 l 204 1061 l 301 1176 l 194 1261 z m 108 0 l 217 0 l 217 986 l 108 986 z "},"ļ":{"ha":325,"x_min":0,"x_max":0,"o":"m 108 0 l 217 0 l 217 986 l 108 986 z m 111 -112 l 81 -322 l 181 -322 l 236 -112 z "},"ŀ":{"ha":551,"x_min":0,"x_max":0,"o":"m 108 0 l 217 0 l 217 986 l 108 986 z m 428 413 b 503 486 467 413 503 443 b 428 563 503 529 467 563 b 354 486 390 563 354 529 b 428 413 354 443 390 413 z "},"ľ":{"ha":588,"x_min":0,"x_max":0,"o":"m 446 986 l 386 686 l 482 686 l 567 986 z m 108 0 l 217 0 l 217 986 l 108 986 z "},"m":{"ha":1169,"x_min":0,"x_max":0,"o":"m 108 0 l 215 0 l 215 435 b 392 640 215 565 282 640 b 542 435 493 640 546 574 l 542 0 l 649 0 l 649 436 b 824 640 649 565 718 640 b 975 436 929 640 975 575 l 975 0 l 1082 0 l 1082 444 b 836 742 1082 621 997 742 b 608 600 725 742 643 681 b 403 742 585 688 503 742 b 213 624 306 742 231 678 l 210 722 l 108 722 z "},"n":{"ha":761,"x_min":0,"x_max":0,"o":"m 108 0 l 217 0 l 217 432 b 394 643 217 563 288 643 b 565 432 515 643 565 567 l 565 0 l 674 0 l 674 433 b 418 743 674 632 572 743 b 213 624 324 743 243 692 l 208 722 l 108 722 z "},"ń":{"ha":761,"x_min":0,"x_max":0,"o":"m 293 869 l 392 869 l 544 1028 l 438 1113 z m 108 0 l 217 0 l 217 432 b 394 643 217 563 288 643 b 565 432 515 643 565 567 l 565 0 l 674 0 l 674 433 b 418 743 674 632 572 743 b 213 624 324 743 243 692 l 208 722 l 108 722 z "},"ň":{"ha":761,"x_min":0,"x_max":0,"o":"m 336 883 l 443 883 l 590 1035 l 538 1086 l 389 982 l 239 1086 l 185 1033 z m 108 0 l 217 0 l 217 432 b 394 643 217 563 288 643 b 565 432 515 643 565 567 l 565 0 l 674 0 l 674 433 b 418 743 674 632 572 743 b 213 624 324 743 243 692 l 208 722 l 108 722 z "},"ņ":{"ha":761,"x_min":0,"x_max":0,"o":"m 108 0 l 217 0 l 217 432 b 394 643 217 563 288 643 b 565 432 515 643 565 567 l 565 0 l 674 0 l 674 433 b 418 743 674 632 572 743 b 213 624 324 743 243 692 l 208 722 l 108 722 z m 338 -121 l 307 -331 l 407 -331 l 463 -121 z "},"ñ":{"ha":761,"x_min":0,"x_max":0,"o":"m 129 911 l 193 890 b 293 956 207 932 246 953 b 496 900 368 958 407 894 b 631 1029 588 907 629 988 l 563 1053 b 483 996 556 1026 529 999 b 282 1051 429 993 393 1058 b 129 911 193 1044 136 976 z m 108 0 l 217 0 l 217 432 b 394 643 217 563 288 643 b 565 432 515 643 565 567 l 565 0 l 674 0 l 674 433 b 418 743 674 632 572 743 b 213 624 324 743 243 692 l 208 722 l 108 722 z "},"o":{"ha":772,"x_min":0,"x_max":0,"o":"m 385 -12 b 707 358 542 -12 707 104 b 385 736 707 618 549 736 b 65 358 222 736 65 624 b 385 -12 65 103 226 -12 z m 385 88 b 171 358 278 88 171 171 b 385 638 171 558 271 638 b 601 358 494 638 601 557 b 385 88 601 165 489 88 z "},"ó":{"ha":772,"x_min":0,"x_max":0,"o":"m 292 853 l 390 853 l 543 1011 l 436 1096 z m 385 -12 b 707 358 542 -12 707 104 b 385 736 707 618 549 736 b 65 358 222 736 65 624 b 385 -12 65 103 226 -12 z m 385 88 b 171 358 278 88 171 171 b 385 638 171 558 271 638 b 601 358 494 638 601 557 b 385 88 601 165 489 88 z "},"ô":{"ha":772,"x_min":0,"x_max":0,"o":"m 238 858 l 388 963 l 533 860 l 589 911 l 440 1061 l 333 1061 l 183 908 z m 385 -12 b 707 358 542 -12 707 104 b 385 736 707 618 549 736 b 65 358 222 736 65 624 b 385 -12 65 103 226 -12 z m 385 88 b 171 358 278 88 171 171 b 385 638 171 558 271 638 b 601 358 494 638 601 557 b 385 88 601 165 489 88 z "},"ò":{"ha":772,"x_min":0,"x_max":0,"o":"m 344 1106 l 238 1021 l 390 863 l 489 863 z m 385 -12 b 707 358 542 -12 707 104 b 385 736 707 618 549 736 b 65 358 222 736 65 624 b 385 -12 65 103 226 -12 z m 385 88 b 171 358 278 88 171 171 b 385 638 171 558 271 638 b 601 358 494 638 601 557 b 385 88 601 165 489 88 z "},"ö":{"ha":772,"x_min":0,"x_max":0,"o":"m 533 896 b 604 967 569 896 604 928 b 533 1038 604 1006 569 1038 b 464 967 497 1038 464 1006 b 533 896 464 928 497 896 z m 244 896 b 315 967 282 896 315 928 b 244 1038 315 1006 282 1038 b 175 967 210 1038 175 1006 b 244 896 175 928 210 896 z m 385 -12 b 707 358 542 -12 707 104 b 385 736 707 618 549 736 b 65 358 222 736 65 624 b 385 -12 65 103 226 -12 z m 385 88 b 171 358 278 88 171 171 b 385 638 171 558 271 638 b 601 358 494 638 601 557 b 385 88 601 165 489 88 z "},"õ":{"ha":772,"x_min":0,"x_max":0,"o":"m 129 890 l 193 869 b 293 935 207 911 246 932 b 496 879 368 938 407 874 b 631 1008 588 886 629 967 l 563 1032 b 483 975 556 1006 529 978 b 282 1031 429 972 393 1038 b 129 890 193 1024 136 956 z m 385 -12 b 707 358 542 -12 707 104 b 385 736 707 618 549 736 b 65 358 222 736 65 624 b 385 -12 65 103 226 -12 z m 385 88 b 171 358 278 88 171 171 b 385 638 171 558 271 638 b 601 358 494 638 601 557 b 385 88 601 165 489 88 z "},"ŏ":{"ha":772,"x_min":0,"x_max":0,"o":"m 383 883 b 618 1010 472 883 565 926 l 554 1069 b 383 979 506 1010 443 979 b 210 1069 324 979 256 1015 l 147 1010 b 383 883 200 936 296 883 z m 385 -12 b 707 358 542 -12 707 104 b 385 736 707 618 549 736 b 65 358 222 736 65 624 b 385 -12 65 103 226 -12 z m 385 88 b 171 358 278 88 171 171 b 385 638 171 558 271 638 b 601 358 494 638 601 557 b 385 88 601 165 489 88 z "},"ő":{"ha":772,"x_min":0,"x_max":0,"o":"m 403 854 l 496 854 l 625 1033 l 521 1096 z m 190 854 l 283 854 l 411 1033 l 308 1096 z m 385 -12 b 707 358 542 -12 707 104 b 385 736 707 618 549 736 b 65 358 222 736 65 624 b 385 -12 65 103 226 -12 z m 385 88 b 171 358 278 88 171 171 b 385 638 171 558 271 638 b 601 358 494 638 601 557 b 385 88 601 165 489 88 z "},"ō":{"ha":772,"x_min":0,"x_max":0,"o":"m 131 921 l 635 921 l 635 1014 l 131 1014 z m 385 -12 b 707 358 542 -12 707 104 b 385 736 707 618 549 736 b 65 358 222 736 65 624 b 385 -12 65 103 226 -12 z m 385 88 b 171 358 278 88 171 171 b 385 638 171 558 271 638 b 601 358 494 638 601 557 b 385 88 601 165 489 88 z "},"ø":{"ha":774,"x_min":0,"x_max":0,"o":"m 172 358 b 386 638 172 558 272 638 b 514 593 432 638 476 624 l 206 203 b 172 358 185 243 172 294 z m 386 88 b 263 131 342 88 299 101 l 571 519 b 603 358 590 479 603 425 b 386 88 603 165 490 88 z m 386 -12 b 708 358 543 -12 708 104 b 639 607 708 464 682 547 l 704 689 l 633 743 l 578 672 b 386 736 522 715 454 736 b 67 358 224 736 67 624 b 135 115 67 254 93 174 l 65 26 l 138 -26 l 199 50 b 386 -12 253 8 319 -12 z "},"ǿ":{"ha":774,"x_min":0,"x_max":0,"o":"m 294 869 l 393 869 l 546 1028 l 439 1113 z m 172 358 b 386 638 172 558 272 638 b 514 593 432 638 476 624 l 206 203 b 172 358 185 243 172 294 z m 386 88 b 263 131 342 88 299 101 l 571 519 b 603 358 590 479 603 425 b 386 88 603 165 490 88 z m 386 -12 b 708 358 543 -12 708 104 b 639 607 708 464 682 547 l 704 689 l 633 743 l 578 672 b 386 736 522 715 454 736 b 67 358 224 736 67 624 b 135 115 67 254 93 174 l 65 26 l 138 -26 l 199 50 b 386 -12 253 8 319 -12 z "},"œ":{"ha":1192,"x_min":0,"x_max":0,"o":"m 881 -17 b 1167 106 1015 -17 1104 25 l 1092 169 b 886 81 1050 113 978 81 b 664 324 771 81 667 158 l 1174 324 l 1174 393 b 871 736 1174 618 1040 736 b 608 581 764 736 665 682 b 338 736 549 686 444 736 b 18 358 175 736 18 624 b 338 -12 18 103 179 -12 b 607 142 439 -12 544 38 b 881 -17 667 35 771 -17 z m 664 415 b 871 639 672 549 754 639 b 1068 415 985 639 1068 560 z m 338 88 b 124 358 231 88 124 171 b 338 638 124 558 224 638 b 554 358 447 638 554 557 b 338 88 554 165 442 88 z "},"p":{"ha":793,"x_min":0,"x_max":0,"o":"m 417 86 b 217 363 314 86 217 168 b 417 638 217 569 326 638 b 618 363 507 638 618 564 b 417 86 618 164 521 86 z m 217 111 b 431 -12 242 40 343 -12 b 728 363 581 -12 728 96 b 435 738 728 626 574 738 b 214 615 346 738 251 690 l 214 722 l 108 722 l 108 -296 l 217 -296 z "},"q":{"ha":793,"x_min":0,"x_max":0,"o":"m 576 -296 l 685 -296 l 685 722 l 579 722 l 579 615 b 358 738 542 690 447 738 b 65 363 219 738 65 626 b 363 -12 65 96 213 -12 b 576 111 450 -12 551 40 z m 175 363 b 376 638 175 564 286 638 b 576 363 467 638 576 569 b 376 86 576 168 479 86 b 175 363 272 86 175 164 z "},"r":{"ha":539,"x_min":0,"x_max":0,"o":"m 108 0 l 217 0 l 217 418 b 394 635 217 550 289 635 b 481 617 428 635 458 632 l 521 710 b 400 736 486 732 449 736 b 215 631 325 736 247 689 l 197 722 l 108 722 z "},"ř":{"ha":539,"x_min":0,"x_max":0,"o":"m 232 892 l 339 892 l 486 1043 l 433 1094 l 285 990 l 135 1094 l 81 1042 z m 108 0 l 217 0 l 217 418 b 394 635 217 550 289 635 b 481 617 428 635 458 632 l 521 710 b 400 736 486 732 449 736 b 215 631 325 736 247 689 l 197 722 l 108 722 z "},"ŕ":{"ha":539,"x_min":0,"x_max":0,"o":"m 182 847 l 281 847 l 433 1006 l 326 1090 z m 108 0 l 217 0 l 217 418 b 394 635 217 550 289 635 b 481 617 428 635 458 632 l 521 710 b 400 736 486 732 449 736 b 215 631 325 736 247 689 l 197 722 l 108 722 z "},"ŗ":{"ha":539,"x_min":0,"x_max":0,"o":"m 108 0 l 217 0 l 217 418 b 394 635 217 550 289 635 b 481 617 428 635 458 632 l 521 710 b 400 736 486 732 449 736 b 215 631 325 736 247 689 l 197 722 l 108 722 z m 119 -108 l 89 -318 l 189 -318 l 244 -108 z "},"s":{"ha":683,"x_min":0,"x_max":0,"o":"m 350 -17 b 611 203 518 -17 611 74 b 389 424 611 336 532 417 b 194 529 242 431 194 460 b 356 640 194 594 246 640 b 533 571 475 640 533 571 l 601 646 b 357 736 557 692 476 736 b 89 521 174 736 89 638 b 315 324 89 403 181 331 b 503 203 458 317 503 283 b 349 86 503 129 446 86 b 125 167 250 86 178 121 l 57 89 b 350 -17 147 13 246 -17 z "},"š":{"ha":683,"x_min":0,"x_max":0,"o":"m 290 864 l 397 864 l 544 1015 l 492 1067 l 343 963 l 193 1067 l 139 1014 z m 350 -17 b 611 203 518 -17 611 74 b 389 424 611 336 532 417 b 194 529 242 431 194 460 b 356 640 194 594 246 640 b 533 571 475 640 533 571 l 601 646 b 357 736 557 692 476 736 b 89 521 174 736 89 638 b 315 324 89 403 181 331 b 503 203 458 317 503 283 b 349 86 503 129 446 86 b 125 167 250 86 178 121 l 57 89 b 350 -17 147 13 246 -17 z "},"ś":{"ha":683,"x_min":0,"x_max":0,"o":"m 249 867 l 347 867 l 500 1025 l 393 1110 z m 350 -17 b 611 203 518 -17 611 74 b 389 424 611 336 532 417 b 194 529 242 431 194 460 b 356 640 194 594 246 640 b 533 571 475 640 533 571 l 601 646 b 357 736 557 692 476 736 b 89 521 174 736 89 638 b 315 324 89 403 181 331 b 503 203 458 317 503 283 b 349 86 503 129 446 86 b 125 167 250 86 178 121 l 57 89 b 350 -17 147 13 246 -17 z "},"ş":{"ha":683,"x_min":0,"x_max":0,"o":"m 328 -344 b 489 -199 438 -344 489 -276 b 347 -51 489 -115 426 -61 l 353 -17 b 611 203 518 -17 611 74 b 389 424 611 336 532 417 b 194 529 242 431 194 460 b 356 640 194 594 246 640 b 533 571 475 640 533 571 l 601 646 b 357 736 557 692 476 736 b 89 521 174 736 89 638 b 315 324 89 403 181 331 b 503 203 458 317 503 283 b 349 86 503 129 446 86 b 125 167 250 86 178 121 l 57 89 b 282 -12 128 29 203 -1 l 256 -132 l 310 -137 b 397 -199 363 -143 397 -161 b 329 -253 397 -235 364 -253 b 232 -228 289 -253 258 -239 l 200 -311 b 328 -344 229 -324 275 -344 z "},"ș":{"ha":683,"x_min":0,"x_max":0,"o":"m 350 -17 b 611 203 518 -17 611 74 b 389 424 611 336 532 417 b 194 529 242 431 194 460 b 356 640 194 594 246 640 b 533 571 475 640 533 571 l 601 646 b 357 736 557 692 476 736 b 89 521 174 736 89 638 b 315 324 89 403 181 331 b 503 203 458 317 503 283 b 349 86 503 129 446 86 b 125 167 250 86 178 121 l 57 89 b 350 -17 147 13 246 -17 z m 290 -117 l 260 -326 l 360 -326 l 415 -117 z "},"t":{"ha":465,"x_min":0,"x_max":0,"o":"m 154 218 b 364 -6 154 63 258 -6 l 406 -6 l 406 94 b 261 229 297 94 261 140 l 261 625 l 406 625 l 406 722 l 261 722 l 261 924 l 154 924 l 154 722 l 47 722 l 47 625 l 154 625 z "},"ť":{"ha":572,"x_min":0,"x_max":0,"o":"m 475 1146 l 415 846 l 511 846 l 596 1146 z m 154 218 b 364 -6 154 63 258 -6 l 406 -6 l 406 94 b 261 229 297 94 261 140 l 261 625 l 406 625 l 406 722 l 261 722 l 261 924 l 154 924 l 154 722 l 47 722 l 47 625 l 154 625 z "},"ț":{"ha":465,"x_min":0,"x_max":0,"o":"m 154 218 b 364 -6 154 63 258 -6 l 406 -6 l 406 94 b 261 229 297 94 261 140 l 261 625 l 406 625 l 406 722 l 261 722 l 261 924 l 154 924 l 154 722 l 47 722 l 47 625 l 154 625 z m 206 -118 l 175 -328 l 275 -328 l 331 -118 z "},"ţ":{"ha":465,"x_min":0,"x_max":0,"o":"m 263 -307 b 424 -161 372 -307 424 -239 b 282 -14 424 -78 361 -24 l 286 8 b 364 -6 310 -1 338 -6 l 406 -6 l 406 94 b 261 229 297 94 261 140 l 261 625 l 406 625 l 406 722 l 261 722 l 261 924 l 154 924 l 154 722 l 47 722 l 47 625 l 154 625 l 154 218 b 221 47 154 139 181 83 l 190 -94 l 244 -100 b 332 -161 297 -106 332 -124 b 264 -215 332 -197 299 -215 b 167 -190 224 -215 193 -201 l 135 -274 b 263 -307 164 -286 210 -307 z "},"þ":{"ha":786,"x_min":0,"x_max":0,"o":"m 413 85 b 214 356 308 85 214 172 b 414 636 214 561 322 636 b 613 353 507 636 613 560 b 413 85 613 164 518 85 z m 108 -294 l 217 -294 l 217 111 b 425 -14 244 39 339 -14 b 721 353 576 -14 721 101 b 425 736 721 621 567 736 b 214 619 342 736 250 688 l 214 986 l 108 986 z "},"u":{"ha":760,"x_min":0,"x_max":0,"o":"m 353 -15 b 546 104 433 -15 522 38 l 549 0 l 651 0 l 651 722 l 543 722 l 543 292 b 368 85 543 160 472 85 b 194 292 260 85 194 154 l 194 722 l 85 722 l 85 292 b 353 -15 85 88 203 -15 z "},"ú":{"ha":760,"x_min":0,"x_max":0,"o":"m 271 836 l 369 836 l 522 994 l 415 1079 z m 353 -15 b 546 104 433 -15 522 38 l 549 0 l 651 0 l 651 722 l 543 722 l 543 292 b 368 85 543 160 472 85 b 194 292 260 85 194 154 l 194 722 l 85 722 l 85 292 b 353 -15 85 88 203 -15 z "},"û":{"ha":760,"x_min":0,"x_max":0,"o":"m 225 858 l 375 963 l 521 860 l 576 911 l 428 1061 l 321 1061 l 171 908 z m 353 -15 b 546 104 433 -15 522 38 l 549 0 l 651 0 l 651 722 l 543 722 l 543 292 b 368 85 543 160 472 85 b 194 292 260 85 194 154 l 194 722 l 85 722 l 85 292 b 353 -15 85 88 203 -15 z "},"ù":{"ha":760,"x_min":0,"x_max":0,"o":"m 342 1101 l 235 1017 l 388 858 l 486 858 z m 353 -15 b 546 104 433 -15 522 38 l 549 0 l 651 0 l 651 722 l 543 722 l 543 292 b 368 85 543 160 472 85 b 194 292 260 85 194 154 l 194 722 l 85 722 l 85 292 b 353 -15 85 88 203 -15 z "},"ü":{"ha":760,"x_min":0,"x_max":0,"o":"m 519 894 b 590 965 556 894 590 926 b 519 1036 590 1004 556 1036 b 450 965 483 1036 450 1004 b 519 894 450 926 483 894 z m 231 894 b 301 965 268 894 301 926 b 231 1036 301 1004 268 1036 b 161 965 196 1036 161 1004 b 231 894 161 926 196 894 z m 353 -15 b 546 104 433 -15 522 38 l 549 0 l 651 0 l 651 722 l 543 722 l 543 292 b 368 85 543 160 472 85 b 194 292 260 85 194 154 l 194 722 l 85 722 l 85 292 b 353 -15 85 88 203 -15 z "},"ŭ":{"ha":760,"x_min":0,"x_max":0,"o":"m 368 874 b 603 1000 457 874 550 917 l 539 1060 b 368 969 490 1000 428 969 b 194 1060 308 969 240 1006 l 132 1000 b 368 874 185 926 281 874 z m 353 -15 b 546 104 433 -15 522 38 l 549 0 l 651 0 l 651 722 l 543 722 l 543 292 b 368 85 543 160 472 85 b 194 292 260 85 194 154 l 194 722 l 85 722 l 85 292 b 353 -15 85 88 203 -15 z "},"ű":{"ha":760,"x_min":0,"x_max":0,"o":"m 408 863 l 501 863 l 631 1042 l 526 1104 z m 196 863 l 289 863 l 417 1042 l 314 1104 z m 353 -15 b 546 104 433 -15 522 38 l 549 0 l 651 0 l 651 722 l 543 722 l 543 292 b 368 85 543 160 472 85 b 194 292 260 85 194 154 l 194 722 l 85 722 l 85 292 b 353 -15 85 88 203 -15 z "},"ū":{"ha":760,"x_min":0,"x_max":0,"o":"m 125 928 l 629 928 l 629 1021 l 125 1021 z m 353 -15 b 546 104 433 -15 522 38 l 549 0 l 651 0 l 651 722 l 543 722 l 543 292 b 368 85 543 160 472 85 b 194 292 260 85 194 154 l 194 722 l 85 722 l 85 292 b 353 -15 85 88 203 -15 z "},"ų":{"ha":760,"x_min":0,"x_max":0,"o":"m 646 -201 l 563 -201 b 522 -143 499 -201 497 -171 l 651 0 l 651 722 l 543 722 l 543 292 b 368 85 543 160 472 85 b 194 292 260 85 194 154 l 194 722 l 85 722 l 85 292 b 353 -15 85 88 203 -15 b 546 104 433 -15 522 38 l 547 31 b 432 -101 528 8 458 -68 b 542 -299 356 -192 415 -299 l 646 -299 z "},"ů":{"ha":760,"x_min":0,"x_max":0,"o":"m 361 776 b 517 932 442 776 517 844 b 361 1089 517 1015 440 1089 b 204 932 281 1089 204 1015 b 361 776 204 844 279 776 z m 361 851 b 281 931 314 851 281 885 b 361 1013 281 974 315 1013 b 440 931 407 1013 440 974 b 361 851 440 885 408 851 z m 353 -15 b 546 104 433 -15 522 38 l 549 0 l 651 0 l 651 722 l 543 722 l 543 292 b 368 85 543 160 472 85 b 194 292 260 85 194 154 l 194 722 l 85 722 l 85 292 b 353 -15 85 88 203 -15 z "},"v":{"ha":714,"x_min":0,"x_max":0,"o":"m 304 0 l 410 0 l 682 722 l 565 722 l 357 153 l 149 722 l 32 722 z "},"w":{"ha":1001,"x_min":0,"x_max":0,"o":"m 249 0 l 349 0 l 501 499 l 658 0 l 764 0 l 969 722 l 856 722 l 710 182 l 544 722 l 460 722 l 300 179 l 144 722 l 32 722 z "},"ẃ":{"ha":1001,"x_min":0,"x_max":0,"o":"m 433 844 l 532 844 l 685 1003 l 578 1088 z m 249 0 l 349 0 l 501 499 l 658 0 l 764 0 l 969 722 l 856 722 l 710 182 l 544 722 l 460 722 l 300 179 l 144 722 l 32 722 z "},"ŵ":{"ha":1001,"x_min":0,"x_max":0,"o":"m 358 858 l 508 963 l 654 860 l 710 911 l 561 1061 l 454 1061 l 304 908 z m 249 0 l 349 0 l 501 499 l 658 0 l 764 0 l 969 722 l 856 722 l 710 182 l 544 722 l 460 722 l 300 179 l 144 722 l 32 722 z "},"ẅ":{"ha":1001,"x_min":0,"x_max":0,"o":"m 658 897 b 729 968 694 897 729 929 b 658 1039 729 1007 694 1039 b 589 968 622 1039 589 1007 b 658 897 589 929 622 897 z m 369 897 b 440 968 407 897 440 929 b 369 1039 440 1007 407 1039 b 300 968 335 1039 300 1007 b 369 897 300 929 335 897 z m 249 0 l 349 0 l 501 499 l 658 0 l 764 0 l 969 722 l 856 722 l 710 182 l 544 722 l 460 722 l 300 179 l 144 722 l 32 722 z "},"ẁ":{"ha":1001,"x_min":0,"x_max":0,"o":"m 454 1086 l 347 1001 l 500 843 l 599 843 z m 249 0 l 349 0 l 501 499 l 658 0 l 764 0 l 969 722 l 856 722 l 710 182 l 544 722 l 460 722 l 300 179 l 144 722 l 32 722 z "},"x":{"ha":689,"x_min":0,"x_max":0,"o":"m 44 0 l 175 0 l 350 272 l 511 0 l 642 0 l 411 369 l 644 722 l 513 722 l 340 453 l 185 722 l 54 722 l 276 360 z "},"y":{"ha":700,"x_min":0,"x_max":0,"o":"m 67 -254 b 354 -132 171 -292 299 -282 l 668 722 l 553 722 l 349 142 l 147 722 l 32 722 l 294 1 b 265 -85 296 -3 267 -81 b 96 -161 232 -169 182 -190 z "},"ÿ":{"ha":700,"x_min":0,"x_max":0,"o":"m 501 892 b 572 963 538 892 572 924 b 501 1033 572 1001 538 1033 b 432 963 465 1033 432 1001 b 501 892 432 924 465 892 z m 213 892 b 283 963 250 892 283 924 b 213 1033 283 1001 250 1033 b 143 963 178 1033 143 1001 b 213 892 143 924 178 892 z m 67 -254 b 354 -132 171 -292 299 -282 l 668 722 l 553 722 l 349 142 l 147 722 l 32 722 l 294 1 b 265 -85 296 -3 267 -81 b 96 -161 232 -169 182 -190 z "},"ý":{"ha":700,"x_min":0,"x_max":0,"o":"m 246 858 l 344 858 l 497 1017 l 390 1101 z m 67 -254 b 354 -132 171 -292 299 -282 l 668 722 l 553 722 l 349 142 l 147 722 l 32 722 l 294 1 b 265 -85 296 -3 267 -81 b 96 -161 232 -169 182 -190 z "},"ŷ":{"ha":700,"x_min":0,"x_max":0,"o":"m 208 858 l 358 963 l 504 860 l 560 911 l 411 1061 l 304 1061 l 154 908 z m 67 -254 b 354 -132 171 -292 299 -282 l 668 722 l 553 722 l 349 142 l 147 722 l 32 722 l 294 1 b 265 -85 296 -3 267 -81 b 96 -161 232 -169 182 -190 z "},"ỳ":{"ha":700,"x_min":0,"x_max":0,"o":"m 324 1096 l 217 1011 l 369 853 l 468 853 z m 67 -254 b 354 -132 171 -292 299 -282 l 668 722 l 553 722 l 349 142 l 147 722 l 32 722 l 294 1 b 265 -85 296 -3 267 -81 b 96 -161 232 -169 182 -190 z "},"z":{"ha":660,"x_min":0,"x_max":0,"o":"m 61 0 l 599 0 l 599 101 l 207 101 l 589 643 l 589 722 l 68 722 l 68 622 l 440 622 l 61 86 z "},"ž":{"ha":660,"x_min":0,"x_max":0,"o":"m 282 888 l 389 888 l 536 1039 l 483 1090 l 335 986 l 185 1090 l 131 1038 z m 61 0 l 599 0 l 599 101 l 207 101 l 589 643 l 589 722 l 68 722 l 68 622 l 440 622 l 61 86 z "},"ź":{"ha":660,"x_min":0,"x_max":0,"o":"m 228 869 l 326 869 l 479 1028 l 372 1113 z m 61 0 l 599 0 l 599 101 l 207 101 l 589 643 l 589 722 l 68 722 l 68 622 l 440 622 l 61 86 z "},"ż":{"ha":660,"x_min":0,"x_max":0,"o":"m 332 900 b 407 975 369 900 407 932 b 332 1050 407 1015 369 1050 b 256 975 294 1050 256 1015 b 332 900 256 932 294 900 z m 61 0 l 599 0 l 599 101 l 207 101 l 589 643 l 589 722 l 68 722 l 68 622 l 440 622 l 61 86 z "},"ǝ":{"ha":749,"x_min":0,"x_max":0,"o":"m 350 703 b 64 581 215 703 126 661 l 139 517 b 344 606 181 574 253 606 b 567 363 460 606 564 528 l 57 363 l 57 293 b 360 -50 57 68 190 -50 b 675 326 528 -50 675 83 b 350 703 675 582 518 703 z m 567 271 b 360 47 558 138 476 47 b 163 271 246 47 163 126 z "},"ß":{"ha":829,"x_min":0,"x_max":0,"o":"m 108 0 l 217 0 l 217 626 b 428 900 217 821 324 900 b 583 814 513 900 565 867 l 388 538 l 388 469 l 397 469 b 649 293 592 464 649 399 b 442 94 649 182 575 94 b 351 101 401 94 365 97 l 351 0 b 440 -7 365 -3 396 -7 b 757 293 633 -7 757 124 b 513 556 757 438 658 535 l 704 817 b 431 1000 664 921 574 1000 b 108 624 272 1000 108 882 z "},"#":{"ha":850,"x_min":0,"x_max":0,"o":"m 292 407 l 321 565 l 514 565 l 485 407 z m 142 125 l 235 125 l 272 324 l 465 324 l 428 125 l 519 125 l 561 324 l 728 324 l 743 407 l 576 407 l 610 565 l 768 565 l 785 649 l 625 649 l 660 835 l 569 835 l 532 649 l 339 649 l 374 835 l 282 835 l 243 649 l 97 649 l 81 565 l 228 565 l 196 407 l 56 407 l 39 324 l 181 324 z "},"°":{"ha":572,"x_min":0,"x_max":0,"o":"m 285 519 b 524 757 413 519 524 629 b 285 994 524 885 413 994 b 50 757 160 994 50 885 b 285 519 50 628 160 519 z m 286 614 b 146 757 208 614 146 678 b 286 899 146 835 208 899 b 426 757 364 899 426 836 b 286 614 426 678 364 614 z "},"%":{"ha":1101,"x_min":0,"x_max":0,"o":"m 296 533 b 504 765 414 533 504 614 b 296 992 504 906 413 992 b 89 764 183 992 89 903 b 296 533 89 617 185 533 z m 142 0 l 256 0 l 950 986 l 836 986 z m 297 618 b 178 763 229 618 178 671 b 297 906 178 851 229 906 b 417 763 365 906 417 851 b 297 618 417 665 363 618 z m 799 -11 b 1007 219 917 -11 1007 69 b 799 447 1007 363 915 447 b 590 219 686 447 590 360 b 799 -11 590 74 688 -11 z m 800 74 b 682 218 732 74 682 128 b 800 361 682 308 732 361 b 919 218 869 361 919 307 b 800 74 919 122 867 74 z "},".":{"ha":301,"x_min":0,"x_max":0,"o":"m 150 -10 b 228 68 190 -10 228 22 b 150 144 228 113 190 144 b 74 68 110 144 74 113 b 150 -10 74 22 110 -10 z "},"…":{"ha":888,"x_min":0,"x_max":0,"o":"m 704 -10 b 781 69 743 -10 781 25 b 704 146 781 113 743 146 b 626 69 664 146 626 113 b 704 -10 626 25 664 -10 z m 431 -10 b 508 69 471 -10 508 25 b 431 146 508 113 471 146 b 353 69 390 146 353 113 b 431 -10 353 25 390 -10 z m 150 -10 b 228 69 189 -10 228 25 b 150 146 228 113 189 146 b 74 69 111 146 74 113 b 150 -10 74 25 111 -10 z "},":":{"ha":326,"x_min":0,"x_max":0,"o":"m 164 507 b 242 585 203 507 242 542 b 164 663 242 631 203 663 b 88 585 124 663 88 631 b 164 507 88 542 124 507 z m 164 15 b 242 93 203 15 242 49 b 164 171 242 138 203 171 b 86 93 122 171 86 138 b 164 15 86 49 122 15 z "},",":{"ha":324,"x_min":0,"x_max":0,"o":"m 129 121 l 81 -135 l 176 -135 l 250 121 z "},";":{"ha":313,"x_min":0,"x_max":0,"o":"m 169 508 b 247 586 210 508 247 540 b 169 663 247 631 210 663 b 93 586 129 663 93 631 b 169 508 93 540 129 508 z m 122 136 l 74 -119 l 169 -119 l 243 136 z "},"!":{"ha":367,"x_min":0,"x_max":0,"o":"m 156 286 l 211 286 l 242 610 l 242 986 l 124 986 l 124 610 z m 182 -8 b 257 68 221 -8 257 24 b 182 143 257 111 221 143 b 110 68 144 143 110 111 b 182 -8 110 24 144 -8 z "},"¡":{"ha":367,"x_min":0,"x_max":0,"o":"m 176 835 b 101 758 138 835 101 803 b 176 683 101 715 138 683 b 249 758 214 683 249 715 b 176 835 249 803 214 835 z m 203 540 l 147 540 l 117 217 l 117 -160 l 235 -160 l 235 217 z "},"?":{"ha":721,"x_min":0,"x_max":0,"o":"m 285 279 l 385 279 b 489 496 385 401 414 436 b 653 736 575 564 656 610 b 364 1001 649 879 546 1001 b 60 739 190 1001 75 881 l 160 729 b 361 900 175 839 267 900 b 547 733 478 900 547 829 b 426 574 547 665 513 638 b 285 279 350 515 285 453 z m 339 -10 b 411 65 378 -10 411 22 b 339 142 411 110 378 142 b 264 65 299 142 264 110 b 339 -10 264 22 299 -10 z "},"¿":{"ha":721,"x_min":0,"x_max":0,"o":"m 372 735 b 300 660 333 735 300 703 b 372 583 300 615 333 583 b 447 660 413 583 447 615 b 372 735 447 703 413 735 z m 426 446 l 326 446 b 222 229 326 324 297 289 b 58 -11 136 161 56 115 b 347 -276 63 -154 165 -276 b 651 -14 521 -276 636 -156 l 551 -4 b 350 -175 536 -114 444 -175 b 164 -8 233 -175 164 -104 b 285 151 164 60 199 88 b 426 446 361 210 426 272 z "},"&":{"ha":925,"x_min":0,"x_max":0,"o":"m 349 597 b 257 772 318 635 257 690 b 386 903 257 854 319 901 b 517 765 471 904 517 843 b 349 597 517 696 451 636 z m 344 94 b 156 285 228 94 156 178 b 315 482 156 365 204 440 b 558 214 317 482 560 214 b 344 94 508 151 432 94 z m 346 -7 b 629 136 471 -6 557 58 l 750 -1 l 879 -1 l 699 214 l 885 419 l 751 419 l 631 286 b 413 525 631 286 411 525 b 619 767 521 571 619 651 b 390 999 619 894 535 999 b 154 775 246 999 154 894 b 250 565 154 685 221 603 b 49 279 119 500 49 397 b 346 -7 49 117 169 -8 z "},"'":{"ha":289,"x_min":0,"x_max":0,"o":"m 94 686 l 194 686 l 194 986 l 94 986 z "},"\"":{"ha":517,"x_min":0,"x_max":0,"o":"m 94 686 l 194 686 l 194 986 l 94 986 z m 322 686 l 422 686 l 422 986 l 322 986 z "},"‘":{"ha":314,"x_min":0,"x_max":0,"o":"m 67 986 l 151 686 l 247 686 l 188 986 z "},"“":{"ha":564,"x_min":0,"x_max":0,"o":"m 67 986 l 151 686 l 247 686 l 188 986 z m 317 986 l 401 686 l 497 686 l 438 986 z "},"’":{"ha":314,"x_min":0,"x_max":0,"o":"m 126 986 l 67 686 l 163 686 l 247 986 z "},"”":{"ha":563,"x_min":0,"x_max":0,"o":"m 126 986 l 67 686 l 163 686 l 247 986 z m 375 986 l 315 686 l 411 686 l 496 986 z "},"‚":{"ha":289,"x_min":0,"x_max":0,"o":"m 186 301 l 86 301 l 86 1 l 186 1 z "},"„":{"ha":504,"x_min":0,"x_max":0,"o":"m 186 301 l 86 301 l 86 1 l 186 1 z m 401 301 l 301 301 l 301 1 l 401 1 z "},"‹":{"ha":494,"x_min":0,"x_max":0,"o":"m 296 151 l 368 214 l 211 394 l 368 576 l 294 639 l 108 426 l 108 365 z "},"›":{"ha":492,"x_min":0,"x_max":0,"o":"m 199 644 l 126 582 l 283 401 l 126 219 l 200 157 l 386 369 l 386 431 z "},"«":{"ha":769,"x_min":0,"x_max":0,"o":"m 286 151 l 358 214 l 201 394 l 358 576 l 285 639 l 99 426 l 99 365 z m 572 151 l 644 214 l 488 394 l 644 576 l 571 639 l 385 426 l 385 365 z "},"»":{"ha":769,"x_min":0,"x_max":0,"o":"m 482 646 l 410 583 l 567 403 l 410 221 l 483 158 l 669 371 l 669 432 z m 196 646 l 124 583 l 281 403 l 124 221 l 197 158 l 383 371 l 383 432 z "},"·":{"ha":199,"x_min":0,"x_max":0,"o":"m 99 413 b 174 486 138 413 174 443 b 99 563 174 529 138 563 b 25 486 61 563 25 529 b 99 413 25 443 61 413 z "},"•":{"ha":418,"x_min":0,"x_max":0,"o":"m 210 371 b 324 483 269 371 324 419 b 210 600 324 547 269 600 b 94 483 151 600 94 547 b 210 371 94 419 151 371 z "},"@":{"ha":1315,"x_min":0,"x_max":0,"o":"m 693 -140 b 788 -126 701 -140 772 -140 b 769 -39 789 -126 769 -39 b 693 -47 769 -39 728 -47 b 217 410 389 -47 217 165 b 663 878 217 665 410 874 b 1099 428 910 882 1099 693 b 963 156 1099 215 1028 157 b 861 324 897 154 856 213 l 869 638 l 793 642 l 792 565 b 651 669 788 601 740 668 b 414 410 504 672 415 563 b 657 139 411 254 503 136 b 788 217 725 140 782 182 b 964 69 814 110 910 69 b 1196 429 1089 69 1196 183 b 663 971 1196 740 965 971 b 119 408 358 971 119 722 b 693 -140 119 83 371 -140 z m 653 225 b 507 404 569 225 506 293 b 651 583 510 507 564 585 b 772 400 732 582 775 513 b 653 225 769 283 722 229 z "},"(":{"ha":401,"x_min":0,"x_max":0,"o":"m 244 -144 l 331 -83 b 167 446 249 31 167 213 b 326 990 167 683 224 836 l 238 1049 b 58 446 122 872 58 708 b 244 -144 58 193 157 -24 z "},")":{"ha":401,"x_min":0,"x_max":0,"o":"m 142 1047 l 56 986 b 219 457 138 872 219 690 b 60 -87 219 219 163 67 l 149 -146 b 328 457 264 31 328 194 b 142 1047 328 710 229 926 z "},"[":{"ha":471,"x_min":0,"x_max":0,"o":"m 104 -81 l 410 -81 l 410 22 l 210 22 l 210 940 l 410 940 l 410 1043 l 104 1043 z "},"]":{"ha":471,"x_min":0,"x_max":0,"o":"m 368 1042 l 63 1042 l 63 939 l 263 939 l 263 21 l 63 21 l 63 -82 l 368 -82 z "},"{":{"ha":517,"x_min":0,"x_max":0,"o":"m 424 -89 l 424 11 b 293 129 375 11 293 39 l 293 324 b 208 488 293 418 263 471 b 294 663 261 506 294 557 l 294 847 b 424 968 294 924 333 968 l 424 1069 b 392 1068 418 1069 397 1069 b 192 856 271 1063 192 979 l 192 668 b 47 535 192 574 142 535 l 47 436 b 192 317 143 436 192 407 l 192 121 b 389 -89 192 -1 285 -81 z "},"}":{"ha":524,"x_min":0,"x_max":0,"o":"m 99 1069 l 99 969 b 229 851 147 969 229 942 l 229 657 b 314 493 229 563 260 510 b 228 318 261 475 228 424 l 228 133 b 99 13 228 57 189 13 l 99 -89 b 131 -87 104 -89 125 -89 b 331 125 251 -82 331 1 l 331 313 b 475 446 331 407 381 446 l 475 544 b 331 664 379 544 331 574 l 331 860 b 133 1069 331 982 238 1061 z "},"|":{"ha":378,"x_min":0,"x_max":0,"o":"m 136 -185 l 242 -185 l 242 1124 l 136 1124 z "},"¦":{"ha":381,"x_min":0,"x_max":0,"o":"m 133 564 l 249 564 l 249 1111 l 133 1111 z m 133 -158 l 249 -158 l 249 376 l 133 376 z "},"-":{"ha":599,"x_min":0,"x_max":0,"o":"m 86 347 l 513 347 l 513 450 l 86 450 z "},"–":{"ha":754,"x_min":0,"x_max":0,"o":"m 99 346 l 654 346 l 654 449 l 99 449 z "},"—":{"ha":1272,"x_min":0,"x_max":0,"o":"m 154 346 l 1118 346 l 1118 449 l 154 449 z "},"_":{"ha":724,"x_min":0,"x_max":0,"o":"m -6 -97 l 728 -97 l 728 0 l -6 0 z "},"/":{"ha":518,"x_min":0,"x_max":0,"o":"m 42 0 l 150 0 l 476 986 l 363 986 z "},"\\":{"ha":524,"x_min":0,"x_max":0,"o":"m 374 0 l 481 0 l 154 986 l 42 986 z "},"*":{"ha":561,"x_min":0,"x_max":0,"o":"m 185 586 l 279 717 l 374 585 l 439 631 l 346 767 l 490 813 l 469 889 l 321 846 l 321 1008 l 235 1008 l 235 846 l 92 886 l 71 807 l 211 767 l 119 632 z "},"^":{"ha":606,"x_min":0,"x_max":0,"o":"m 67 683 l 161 667 l 308 875 l 457 665 l 551 681 l 347 986 l 265 986 z "},"~":{"ha":807,"x_min":0,"x_max":0,"o":"m 79 456 b 171 426 79 456 169 426 b 271 504 179 460 211 504 b 515 417 350 504 399 417 b 729 571 639 417 710 490 l 635 592 b 531 515 629 557 590 515 b 285 603 460 515 414 603 b 79 456 165 603 92 517 z "},"+":{"ha":838,"x_min":0,"x_max":0,"o":"m 364 156 l 469 156 l 469 404 l 717 404 l 717 508 l 469 508 l 469 754 l 364 754 l 364 508 l 121 508 l 121 404 l 364 404 z "},"−":{"ha":868,"x_min":0,"x_max":0,"o":"m 750 404 l 750 508 l 121 508 l 121 404 z "},"±":{"ha":872,"x_min":0,"x_max":0,"o":"m 725 74 l 725 171 l 483 171 l 483 418 l 731 418 l 731 522 l 483 522 l 483 768 l 378 768 l 378 522 l 135 522 l 135 418 l 378 418 l 378 171 l 131 171 l 131 74 z "},"×":{"ha":928,"x_min":0,"x_max":0,"o":"m 129 199 l 204 124 l 465 383 l 722 125 l 797 199 l 539 457 l 796 715 l 721 789 l 464 532 l 207 789 l 135 715 l 390 458 z "},"÷":{"ha":903,"x_min":0,"x_max":0,"o":"m 449 625 b 522 700 486 625 522 657 b 449 775 522 744 486 775 b 374 700 410 775 374 744 b 449 625 374 657 410 625 z m 121 408 l 783 408 l 783 510 l 121 510 z m 449 132 b 522 208 486 132 522 165 b 449 285 522 253 486 285 b 374 208 410 285 374 253 b 449 132 374 165 410 132 z "},"=":{"ha":1001,"x_min":0,"x_max":0,"o":"m 165 586 l 835 586 l 835 689 l 165 689 z m 165 264 l 835 264 l 835 368 l 165 368 z "},"<":{"ha":732,"x_min":0,"x_max":0,"o":"m 628 43 l 628 161 l 186 379 l 628 604 l 628 718 l 57 424 l 57 338 z "},">":{"ha":732,"x_min":0,"x_max":0,"o":"m 97 707 l 97 589 l 539 371 l 97 146 l 97 32 l 668 326 l 668 413 z "},"´":{"ha":488,"x_min":0,"x_max":0,"o":"m 168 803 l 267 803 l 419 961 l 313 1046 z "},"˝":{"ha":390,"x_min":0,"x_max":0,"o":"m 242 793 l 335 793 l 464 972 l 360 1035 z m 29 793 l 122 793 l 250 972 l 147 1035 z "},"`":{"ha":435,"x_min":0,"x_max":0,"o":"m 86 1046 l -21 961 l 132 803 l 231 803 z "},"ˆ":{"ha":429,"x_min":0,"x_max":0,"o":"m 25 808 l 175 913 l 321 810 l 376 861 l 228 1011 l 121 1011 l -29 858 z "},"ˇ":{"ha":479,"x_min":0,"x_max":0,"o":"m 146 813 l 253 813 l 400 964 l 347 1015 l 199 911 l 49 1015 l -6 963 z "},"˘":{"ha":518,"x_min":0,"x_max":0,"o":"m 271 818 b 506 944 360 818 453 861 l 442 1004 b 271 914 393 944 331 914 b 97 1004 211 914 143 950 l 35 944 b 271 818 88 871 183 818 z "},"˜":{"ha":467,"x_min":0,"x_max":0,"o":"m -18 785 l 46 764 b 146 829 60 806 99 826 b 349 774 221 832 260 768 b 483 903 440 781 482 861 l 415 926 b 336 869 408 900 382 872 b 135 925 282 867 246 932 b -18 785 46 918 -11 850 z "},"¯":{"ha":606,"x_min":0,"x_max":0,"o":"m 35 828 l 539 828 l 539 921 l 35 921 z "},"¨":{"ha":572,"x_min":0,"x_max":0,"o":"m 390 835 b 461 906 426 835 461 867 b 390 976 461 944 426 976 b 321 906 354 976 321 944 b 390 835 321 867 354 835 z m 101 835 b 172 906 139 835 172 867 b 101 976 172 944 139 976 b 32 906 67 976 32 944 b 101 835 32 867 67 835 z "},"˙":{"ha":213,"x_min":0,"x_max":0,"o":"m 106 847 b 181 922 143 847 181 879 b 106 997 181 963 143 997 b 29 922 68 997 29 963 b 106 847 29 879 68 847 z "},"˚":{"ha":257,"x_min":0,"x_max":0,"o":"m 125 754 b 281 910 206 754 281 822 b 125 1067 281 993 204 1067 b -32 910 44 1067 -32 993 b 125 754 -32 822 43 754 z m 125 829 b 44 908 78 829 44 863 b 125 990 44 951 79 990 b 204 908 171 990 204 951 b 125 829 204 863 172 829 z "},"":{"ha":493,"x_min":0,"x_max":0,"o":"m 193 -58 l 163 -268 l 263 -268 l 318 -58 z "},"¸":{"ha":810,"x_min":0,"x_max":0,"o":"m 338 25 l 307 -117 l 361 -122 b 449 -183 414 -128 449 -146 b 381 -237 449 -219 415 -237 b 283 -212 340 -237 310 -224 l 251 -296 b 379 -329 281 -308 326 -329 b 540 -183 489 -329 540 -261 b 399 -36 540 -100 478 -46 l 408 25 z "},"˛":{"ha":632,"x_min":0,"x_max":0,"o":"m 447 -326 l 447 -229 l 364 -229 b 324 -171 300 -229 299 -199 l 453 -28 l 417 24 b 351 6 417 24 369 28 b 233 -129 329 -19 260 -96 b 343 -326 157 -219 217 -326 z "},"$":{"ha":840,"x_min":0,"x_max":0,"o":"m 183 728 b 349 893 183 824 247 879 l 349 576 b 183 728 243 597 183 638 z m 618 276 b 456 97 618 176 557 115 l 456 453 b 618 276 564 432 618 389 z m 456 -146 l 456 -8 b 725 278 610 11 725 104 b 456 563 725 460 614 539 l 456 893 b 622 808 532 882 593 847 l 700 876 b 456 997 647 938 571 986 l 456 1126 l 349 1126 l 349 997 b 78 725 181 981 78 878 b 349 465 78 568 208 483 l 349 94 b 111 236 246 106 169 160 l 35 165 b 349 -10 97 81 207 3 l 349 -146 z "},"£":{"ha":785,"x_min":0,"x_max":0,"o":"m 68 0 l 681 0 l 681 107 l 229 107 b 326 336 288 169 326 247 b 294 490 326 408 299 481 l 494 490 l 494 596 l 253 596 b 214 751 238 628 214 672 b 407 908 214 832 283 908 b 610 835 485 908 556 879 l 629 938 b 406 1011 576 981 489 1011 b 103 760 222 1011 103 889 b 138 596 103 690 119 633 l 43 596 l 43 490 l 179 490 b 217 346 189 472 217 421 b 68 85 217 196 90 110 z "},"€":{"ha":947,"x_min":0,"x_max":0,"o":"m 849 46 l 849 160 b 597 89 771 118 696 89 b 297 318 435 89 336 163 l 665 318 l 706 424 l 282 424 b 279 488 281 444 279 465 b 282 558 279 513 281 536 l 750 558 l 790 663 l 296 663 b 586 896 331 818 421 896 b 842 811 706 896 782 860 l 889 910 b 583 1001 822 956 743 1001 b 176 663 354 1001 222 874 l 56 663 l 56 558 l 163 558 b 160 485 161 535 160 510 b 161 424 160 464 160 443 l 56 424 l 56 318 l 175 318 b 589 -17 221 96 364 -17 b 849 46 703 -17 788 8 z "},"¥":{"ha":835,"x_min":0,"x_max":0,"o":"m 710 169 l 710 269 l 472 269 l 472 390 l 710 390 l 710 490 l 528 490 l 803 986 l 681 986 l 419 514 l 157 986 l 35 986 l 310 490 l 106 490 l 106 390 l 365 390 l 365 269 l 106 269 l 106 169 l 365 169 l 365 0 l 472 0 l 472 169 z "},"¢":{"ha":715,"x_min":0,"x_max":0,"o":"m 168 351 b 368 636 168 551 268 631 l 267 115 b 168 351 211 156 168 231 z m 378 -19 b 667 201 517 -19 635 64 l 557 201 b 378 79 529 122 463 79 b 372 79 376 79 374 79 l 476 611 b 557 496 515 589 544 550 l 667 496 b 496 714 650 606 582 679 l 521 842 l 408 842 l 388 736 b 379 736 385 736 382 736 b 63 354 222 736 63 621 b 247 11 63 172 144 60 l 217 -144 l 328 -144 l 353 -18 b 378 -19 361 -19 369 -19 z "},"§":{"ha":718,"x_min":0,"x_max":0,"o":"m 186 499 b 344 608 183 554 235 603 b 404 608 368 610 388 610 b 540 507 503 601 538 557 b 388 386 544 433 471 390 b 186 499 244 379 189 429 z m 371 -17 b 621 207 526 -8 628 78 b 561 344 618 271 597 315 b 644 513 617 386 647 447 b 381 704 639 621 540 711 b 340 704 367 704 354 704 l 331 704 b 208 804 231 707 213 743 b 367 914 206 860 258 908 b 549 854 486 921 549 854 l 608 933 b 364 1010 561 976 483 1017 b 107 790 181 1000 100 907 b 174 656 110 733 133 686 b 83 485 108 613 81 547 b 246 307 89 389 160 332 b 342 289 276 296 310 292 b 394 289 360 288 378 288 b 517 201 469 293 513 282 b 364 81 521 128 447 85 b 136 156 267 76 192 113 l 74 76 b 371 -17 168 3 267 -22 z "},"¶":{"ha":829,"x_min":0,"x_max":0,"o":"m 646 3 l 746 3 l 746 989 l 646 989 z m 528 0 l 528 986 l 397 986 b 88 693 206 986 88 860 b 394 407 88 529 203 407 l 417 407 l 417 0 z "},"©":{"ha":1219,"x_min":0,"x_max":0,"o":"m 608 -15 b 1110 492 897 -15 1110 189 b 613 994 1110 793 892 994 b 110 492 329 994 110 793 b 608 -15 110 185 324 -15 z m 613 74 b 208 492 383 74 208 243 b 613 903 208 733 388 903 b 1018 492 833 903 1018 746 b 613 74 1018 247 842 74 z m 617 242 b 824 414 713 242 813 306 l 729 414 b 617 332 719 361 672 332 b 488 486 542 332 488 378 b 617 649 488 593 544 649 b 729 558 675 649 721 614 l 824 558 b 617 736 808 676 713 736 b 388 485 490 736 388 638 b 617 242 388 333 490 242 z "},"®":{"ha":961,"x_min":0,"x_max":0,"o":"m 478 263 b 842 631 686 263 842 411 b 481 994 842 849 683 994 b 118 631 279 994 118 849 b 478 263 118 408 274 263 z m 481 328 b 189 631 317 328 189 450 b 481 928 189 806 319 928 b 774 631 640 928 774 814 b 481 328 774 453 646 328 z m 426 642 l 426 738 l 479 738 b 544 689 526 738 544 721 b 482 642 544 660 526 642 z m 363 454 l 426 454 l 426 581 l 494 581 l 557 454 l 619 454 l 554 592 b 613 689 579 599 613 643 b 497 797 613 743 576 797 l 363 797 z "},"ª":{"ha":546,"x_min":0,"x_max":0,"o":"m 251 508 b 161 590 199 508 161 539 b 271 681 161 643 207 681 b 369 657 297 681 350 675 l 369 568 b 251 508 356 542 313 508 z m 228 428 b 376 496 328 428 371 485 l 376 433 l 465 433 l 465 761 b 272 947 465 894 408 947 b 85 885 190 947 132 921 l 131 819 b 264 865 157 839 196 865 b 369 790 339 865 368 835 b 369 719 371 785 369 728 b 261 744 351 736 301 744 b 64 592 133 744 64 686 l 64 576 b 228 428 64 490 139 428 z m 72 221 l 468 221 l 468 299 l 72 299 z "},"º":{"ha":556,"x_min":0,"x_max":0,"o":"m 276 433 b 493 665 399 433 493 517 l 493 715 b 276 943 493 854 406 943 b 64 715 151 943 64 856 l 64 665 b 276 433 64 522 156 433 z m 276 521 b 158 664 206 521 158 571 l 158 715 b 276 860 158 804 197 860 b 399 715 351 860 399 806 l 399 664 b 276 521 399 568 350 521 z m 78 221 l 476 221 l 476 299 l 78 299 z "},"†":{"ha":678,"x_min":0,"x_max":0,"o":"m 292 240 l 390 240 l 390 689 l 568 689 l 568 782 l 390 782 l 390 974 l 292 974 l 292 782 l 110 782 l 110 689 l 292 689 z "},"‡":{"ha":679,"x_min":0,"x_max":0,"o":"m 389 432 l 568 432 l 568 525 l 389 525 l 389 689 l 569 689 l 569 782 l 389 782 l 389 975 l 289 975 l 289 782 l 111 782 l 111 689 l 289 689 l 289 525 l 110 525 l 110 432 l 289 432 l 289 239 l 389 239 z "},"↑":{"ha":872,"x_min":0,"x_max":0,"o":"m 374 6 l 479 6 l 479 800 l 749 529 l 825 608 l 426 1001 l 31 608 l 107 532 l 374 800 z "},"↓":{"ha":868,"x_min":0,"x_max":0,"o":"m 426 -14 l 825 379 l 749 457 l 479 188 l 479 981 l 374 981 l 374 186 l 107 457 l 31 379 z "},"←":{"ha":1146,"x_min":0,"x_max":0,"o":"m 494 67 l 572 142 l 303 411 l 997 411 l 997 515 l 303 515 l 572 783 l 494 860 l 101 464 z "},"→":{"ha":1135,"x_min":0,"x_max":0,"o":"m 631 57 l 1024 457 l 631 851 l 553 774 l 822 507 l 128 507 l 128 403 l 822 403 l 553 133 z "},"\r":{"ha":300,"x_min":0,"x_max":0,"o":""}," ":{"ha":233,"x_min":0,"x_max":0,"o":""}}}
